<svg width="30" height="30" xmlns="http://www.w3.org/2000/svg" viewBox="0 0 30 30"><title>30 divider x</title><g stroke-linejoin="miter" fill="none" stroke-linecap="butt" class="nc-icon-wrapper"><path d="M19.0049 2.995L19.0049 3.005" stroke="#ffffff" stroke-opacity=".01" stroke-width="2" stroke-linecap="square"></path><path d="M15.0049 2.995L15.0049 3.005" stroke="#ffffff" stroke-opacity=".01" stroke-width="2" stroke-linecap="square"></path><path d="M11.0049 2.995L11.0049 3.005" stroke="#ffffff" stroke-opacity=".01" stroke-width="2" stroke-linecap="square"></path><path d="M23.0049 6.995L23.0049 7.005" stroke="#ffffff" stroke-width="2" stroke-linecap="square"></path><path d="M19.0049 6.995L19.0049 7.005" stroke="#ffffff" stroke-opacity=".01" stroke-width="2" stroke-linecap="square"></path><path d="M7.00488 6.995L7.00488 7.005" stroke="#ffffff" stroke-width="2" stroke-linecap="square"></path><path d="M7.00488 2.995L7.00488 3.005" stroke="#ffffff" stroke-width="2" stroke-linecap="square"></path><path d="M3.00488 2.995L3.00488 3.005" stroke="#ffffff" stroke-width="2" stroke-linecap="square"></path><path d="M23.0049 10.995L23.0049 11.005" stroke="#ffffff" stroke-width="2" stroke-linecap="square"></path><path d="M19.0049 10.995L19.0049 11.005" stroke="#ffffff" stroke-opacity=".01" stroke-width="2" stroke-linecap="square"></path><path d="M19.0049 14.985L19.0049 14.995" stroke="#ffffff" stroke-opacity=".01" stroke-width="2" stroke-linecap="square"></path><path d="M15.0049 10.995L15.0049 11.005" stroke="#ffffff" stroke-width="2" stroke-linecap="square"></path><path d="M15.0049 6.995L15.0049 7.005" stroke="#ffffff" stroke-width="2" stroke-linecap="square"></path><path d="M11.0049 6.995L11.0049 7.005" stroke="#ffffff" stroke-opacity=".01" stroke-width="2" stroke-linecap="square"></path><path d="M11.0049 10.995L11.0049 11.005" stroke="#ffffff" stroke-opacity=".01" stroke-width="2" stroke-linecap="square"></path><path d="M3.00488 10.995L3.00488 11.005" stroke="#ffffff" stroke-opacity=".01" stroke-width="2" stroke-linecap="square"></path><path d="M3.00488 6.995L3.00488 7.005" stroke="#ffffff" stroke-opacity=".25" stroke-width="2" stroke-linecap="square"></path><path d="M23.0049 14.995L23.0049 15.005" stroke="#ffffff" stroke-width="2" stroke-linecap="square"></path><path d="M23.0049 18.985L23.0049 18.995" stroke="#ffffff" stroke-width="2" stroke-linecap="square"></path><path d="M15.0049 14.995L15.0049 15.005" stroke="#ffffff" stroke-width="2" stroke-linecap="square"></path><path d="M7.00488 14.995L7.00488 15.005" stroke="#ffffff" stroke-width="2" stroke-linecap="square"></path><path d="M7.00488 10.995L7.00488 11.005" stroke="#ffffff" stroke-width="2" stroke-linecap="square"></path><path d="M11.0049 14.995L11.0049 15.005" stroke="#ffffff" stroke-opacity=".01" stroke-width="2" stroke-linecap="square"></path><path d="M3.00488 14.995L3.00488 15.005" stroke="#ffffff" stroke-opacity=".01" stroke-width="2" stroke-linecap="square"></path><path d="M19.0049 18.995L19.0049 19.005" stroke="#ffffff" stroke-opacity=".01" stroke-width="2" stroke-linecap="square"></path><path d="M11.0049 18.995L11.0049 19.005" stroke="#ffffff" stroke-opacity=".01" stroke-width="2" stroke-linecap="square"></path><path d="M15.0049 18.995L15.0049 19.005" stroke="#ffffff" stroke-width="2" stroke-linecap="square"></path><path d="M15.0049 22.995L15.0049 23.005" stroke="#ffffff" stroke-width="2" stroke-linecap="square"></path><path d="M7.00488 18.995L7.00488 19.005" stroke="#ffffff" stroke-width="2" stroke-linecap="square"></path><path d="M3.00488 18.995L3.00488 19.005" stroke="#ffffff" stroke-opacity=".01" stroke-width="2" stroke-linecap="square"></path><path d="M3.00488 22.995L3.00488 23.005" stroke="#ffffff" stroke-opacity=".25" stroke-width="2" stroke-linecap="square"></path><path d="M23.0049 22.995L23.0049 23.005" stroke="#ffffff" stroke-width="2" stroke-linecap="square"></path><path d="M23.0049 2.995L23.0049 3.005" stroke="#ffffff" stroke-width="2" stroke-linecap="square"></path><path d="M27.0049 2.995L27.0049 3.005" stroke="#ffffff" stroke-width="2" stroke-linecap="square"></path><path d="M27.0049 26.995L27.0049 27.005" stroke="#ffffff" stroke-width="2" stroke-linecap="square"></path><path d="M27.0049 10.995L27.0049 11.005" stroke="#ffffff" stroke-opacity=".01" stroke-width="2" stroke-linecap="square"></path><path d="M27.0049 6.995L27.0049 7.005" stroke="#ffffff" stroke-opacity=".25" stroke-width="2" stroke-linecap="square"></path><path d="M27.0049 14.995L27.0049 15.005" stroke="#ffffff" stroke-opacity=".01" stroke-width="2" stroke-linecap="square"></path><path d="M27.0049 18.995L27.0049 19.005" stroke="#ffffff" stroke-opacity=".01" stroke-width="2" stroke-linecap="square"></path><path d="M27.0049 22.995L27.0049 23.005" stroke="#ffffff" stroke-opacity=".25" stroke-width="2" stroke-linecap="square"></path><path d="M23.0049 26.995L23.0049 27.005" stroke="#ffffff" stroke-width="2" stroke-linecap="square"></path><path d="M19.0049 22.995L19.0049 23.005" stroke="#ffffff" stroke-opacity=".01" stroke-width="2" stroke-linecap="square"></path><path d="M11.0049 22.995L11.0049 23.005" stroke="#ffffff" stroke-opacity=".01" stroke-width="2" stroke-linecap="square"></path><path d="M7.00488 22.995L7.00488 23.005" stroke="#ffffff" stroke-width="2" stroke-linecap="square"></path><path d="M7.00488 26.995L7.00488 27.005" stroke="#ffffff" stroke-width="2" stroke-linecap="square"></path><path d="M3.00488 26.995L3.00488 27.005" stroke="#ffffff" stroke-width="2" stroke-linecap="square"></path><path d="M19.0049 26.995L19.0049 27.005" stroke="#ffffff" stroke-opacity=".01" stroke-width="2" stroke-linecap="square"></path><path d="M15.0049 26.995L15.0049 27.005" stroke="#ffffff" stroke-opacity=".01" stroke-width="2" stroke-linecap="square"></path><path d="M11.0049 26.995L11.0049 27.005" stroke="#ffffff" stroke-opacity=".01" stroke-width="2" stroke-linecap="square"></path></g></svg>