<svg width="30" height="30" xmlns="http://www.w3.org/2000/svg" viewBox="0 0 30 30"><title>30 face grin</title><g stroke-linejoin="miter" fill="none" stroke-linecap="butt" class="nc-icon-wrapper"><path d="M3 3H3.01" stroke="#ffffff" stroke-opacity=".01" stroke-width="2" stroke-linecap="square"></path><path d="M3 7H3.01" stroke="#ffffff" stroke-opacity=".01" stroke-width="2" stroke-linecap="square"></path><path d="M3 15H3.01" stroke="#ffffff" stroke-opacity=".01" stroke-width="2" stroke-linecap="square"></path><path d="M3 19H3.01" stroke="#ffffff" stroke-opacity=".01" stroke-width="2" stroke-linecap="square"></path><path d="M3 23H3.01" stroke="#ffffff" stroke-opacity=".01" stroke-width="2" stroke-linecap="square"></path><path d="M3 27H3.01" stroke="#ffffff" stroke-opacity=".01" stroke-width="2" stroke-linecap="square"></path><path d="M7 3H7.01" stroke="#ffffff" stroke-width="2" stroke-linecap="square"></path><path d="M7 7H7.01" stroke="#ffffff" stroke-width="2" stroke-linecap="square"></path><path d="M11 3H11.01" stroke="#ffffff" stroke-width="2" stroke-linecap="square"></path><path d="M11 7H11.01" stroke="#ffffff" stroke-width="2" stroke-linecap="square"></path><path d="M15 3H15.01" stroke="#ffffff" stroke-opacity=".01" stroke-width="2" stroke-linecap="square"></path><path d="M15 7H15.01" stroke="#ffffff" stroke-opacity=".01" stroke-width="2" stroke-linecap="square"></path><path d="M19 3H19.01" stroke="#ffffff" stroke-width="2" stroke-linecap="square"></path><path d="M19 7H19.01" stroke="#ffffff" stroke-width="2" stroke-linecap="square"></path><path d="M23 3H23.01" stroke="#ffffff" stroke-width="2" stroke-linecap="square"></path><path d="M23 7H23.01" stroke="#ffffff" stroke-width="2" stroke-linecap="square"></path><path d="M27 27H27.01" stroke="#ffffff" stroke-opacity=".01" stroke-width="2" stroke-linecap="square"></path><path d="M27 3H27.01" stroke="#ffffff" stroke-opacity=".01" stroke-width="2" stroke-linecap="square"></path><path d="M27 7H27.01" stroke="#ffffff" stroke-opacity=".01" stroke-width="2" stroke-linecap="square"></path><path d="M27 15H27.01" stroke="#ffffff" stroke-opacity=".01" stroke-width="2" stroke-linecap="square"></path><path d="M3 11H3.01" stroke="#ffffff" stroke-opacity=".01" stroke-width="2" stroke-linecap="square"></path><path d="M7 11H7.01" stroke="#ffffff" stroke-opacity=".01" stroke-width="2" stroke-linecap="square"></path><path d="M11 11H11.01" stroke="#ffffff" stroke-opacity=".01" stroke-width="2" stroke-linecap="square"></path><path d="M11 15H11.01" stroke="#ffffff" stroke-width="2" stroke-linecap="square"></path><path d="M11 19H11.01" stroke="#ffffff" stroke-opacity=".25" stroke-width="2" stroke-linecap="square"></path><path d="M11 23H11.01" stroke="#ffffff" stroke-opacity=".25" stroke-width="2" stroke-linecap="square"></path><path d="M11 27H11.01" stroke="#ffffff" stroke-width="2" stroke-linecap="square"></path><path d="M15 11H15.01" stroke="#ffffff" stroke-opacity=".01" stroke-width="2" stroke-linecap="square"></path><path d="M19 11H19.01" stroke="#ffffff" stroke-opacity=".01" stroke-width="2" stroke-linecap="square"></path><path d="M23 11H23.01" stroke="#ffffff" stroke-opacity=".01" stroke-width="2" stroke-linecap="square"></path><path d="M27 11H27.01" stroke="#ffffff" stroke-opacity=".01" stroke-width="2" stroke-linecap="square"></path><path d="M27 19H27.01" stroke="#ffffff" stroke-opacity=".01" stroke-width="2" stroke-linecap="square"></path><path d="M27 23H27.01" stroke="#ffffff" stroke-opacity=".01" stroke-width="2" stroke-linecap="square"></path><path d="M7.00488 27.005L7.00488 26.995" stroke="#ffffff" stroke-opacity=".01" stroke-width="2" stroke-linecap="square"></path><path d="M15.0049 27.005L15.0049 26.995" stroke="#ffffff" stroke-width="2" stroke-linecap="square"></path><path d="M19.0049 27.005L19.0049 26.995" stroke="#ffffff" stroke-width="2" stroke-linecap="square"></path><path d="M23.0049 27.005L23.0049 26.995" stroke="#ffffff" stroke-opacity=".01" stroke-width="2" stroke-linecap="square"></path><path d="M7.00488 23.005L7.00488 22.995" stroke="#ffffff" stroke-width="2" stroke-linecap="square"></path><path d="M15.0049 23.005L15.0049 22.995" stroke="#ffffff" stroke-opacity=".25" stroke-width="2" stroke-linecap="square"></path><path d="M19.0049 23.005L19.0049 22.995" stroke="#ffffff" stroke-opacity=".01" stroke-width="2" stroke-linecap="square"></path><path d="M23.0049 23.005L23.0049 22.995" stroke="#ffffff" stroke-width="2" stroke-linecap="square"></path><path d="M7.00488 19.005L7.00488 18.995" stroke="#ffffff" stroke-width="2" stroke-linecap="square"></path><path d="M19.0049 19.005L19.0049 18.995" stroke="#ffffff" stroke-opacity=".01" stroke-width="2" stroke-linecap="square"></path><path d="M15.0049 19.005L15.0049 18.995" stroke="#ffffff" stroke-opacity=".01" stroke-width="2" stroke-linecap="square"></path><path d="M23.0049 19.005L23.0049 18.995" stroke="#ffffff" stroke-width="2" stroke-linecap="square"></path><path d="M7.00488 15.005L7.00488 14.995" stroke="#ffffff" stroke-width="2" stroke-linecap="square"></path><path d="M15.0049 15.005L15.0049 14.995" stroke="#ffffff" stroke-width="2" stroke-linecap="square"></path><path d="M19.0049 15.005L19.0049 14.995" stroke="#ffffff" stroke-width="2" stroke-linecap="square"></path><path d="M23.0049 15.005L23.0049 14.995" stroke="#ffffff" stroke-width="2" stroke-linecap="square"></path></g></svg>