<svg width="30" height="30" xmlns="http://www.w3.org/2000/svg" viewBox="0 0 30 30"><title>30 notebook</title><g stroke-linejoin="miter" fill="none" stroke-linecap="butt" class="nc-icon-wrapper"><path d="M2.99512 23.005H3.00512" stroke="#ffffff" stroke-width="2" stroke-linecap="square"></path><path d="M2.99512 19.005H3.00512" stroke="#ffffff" stroke-width="2" stroke-linecap="square"></path><path d="M2.99512 15.005H3.00512" stroke="#ffffff" stroke-width="2" stroke-linecap="square"></path><path d="M2.99512 11.005H3.00512" stroke="#ffffff" stroke-width="2" stroke-linecap="square"></path><path d="M2.99512 7.005H3.00512" stroke="#ffffff" stroke-width="2" stroke-linecap="square"></path><path d="M2.99512 3.005H3.00512" stroke="#ffffff" stroke-opacity=".01" stroke-width="2" stroke-linecap="square"></path><path d="M6.99512 23.005H7.00512" stroke="#ffffff" stroke-opacity=".25" stroke-width="2" stroke-linecap="square"></path><path d="M6.99512 19.005H7.00512" stroke="#ffffff" stroke-width="2" stroke-linecap="square"></path><path d="M6.99512 15.005H7.00512" stroke="#ffffff" stroke-opacity=".25" stroke-width="2" stroke-linecap="square"></path><path d="M6.99512 11.005H7.00512" stroke="#ffffff" stroke-width="2" stroke-linecap="square"></path><path d="M6.99512 7.005H7.00512" stroke="#ffffff" stroke-opacity=".01" stroke-width="2" stroke-linecap="square"></path><path d="M6.99512 3.005H7.00512" stroke="#ffffff" stroke-width="2" stroke-linecap="square"></path><path d="M10.9951 23.005H11.0051" stroke="#ffffff" stroke-opacity=".25" stroke-width="2" stroke-linecap="square"></path><path d="M10.9951 19.005H11.0051" stroke="#ffffff" stroke-opacity=".25" stroke-width="2" stroke-linecap="square"></path><path d="M10.9951 15.005H11.0051" stroke="#ffffff" stroke-opacity=".01" stroke-width="2" stroke-linecap="square"></path><path d="M10.9951 11.005H11.0051" stroke="#ffffff" stroke-opacity=".01" stroke-width="2" stroke-linecap="square"></path><path d="M10.9951 7.005H11.0051" stroke="#ffffff" stroke-opacity=".01" stroke-width="2" stroke-linecap="square"></path><path d="M10.9951 3.005H11.0051" stroke="#ffffff" stroke-width="2" stroke-linecap="square"></path><path d="M14.9951 23.005H15.0051" stroke="#ffffff" stroke-opacity=".25" stroke-width="2" stroke-linecap="square"></path><path d="M14.9951 19.005H15.0051" stroke="#ffffff" stroke-opacity=".01" stroke-width="2" stroke-linecap="square"></path><path d="M14.9951 11.005H15.0051" stroke="#ffffff" stroke-opacity=".01" stroke-width="2" stroke-linecap="square"></path><path d="M14.9951 15.005H15.0051" stroke="#ffffff" stroke-opacity=".01" stroke-width="2" stroke-linecap="square"></path><path d="M14.9951 7.005H15.0051" stroke="#ffffff" stroke-opacity=".01" stroke-width="2" stroke-linecap="square"></path><path d="M14.9951 3.005H15.0051" stroke="#ffffff" stroke-width="2" stroke-linecap="square"></path><path d="M18.9951 23.005H19.0051" stroke="#ffffff" stroke-opacity=".01" stroke-width="2" stroke-linecap="square"></path><path d="M18.9951 19.005H19.0051" stroke="#ffffff" stroke-opacity=".01" stroke-width="2" stroke-linecap="square"></path><path d="M18.9951 15.005H19.0051" stroke="#ffffff" stroke-opacity=".01" stroke-width="2" stroke-linecap="square"></path><path d="M18.9951 11.005H19.0051" stroke="#ffffff" stroke-opacity=".01" stroke-width="2" stroke-linecap="square"></path><path d="M18.9951 7.005H19.0051" stroke="#ffffff" stroke-opacity=".01" stroke-width="2" stroke-linecap="square"></path><path d="M18.9951 3.005H19.0051" stroke="#ffffff" stroke-width="2" stroke-linecap="square"></path><path d="M22.9951 23.005H23.0051" stroke="#ffffff" stroke-width="2" stroke-linecap="square"></path><path d="M22.9951 19.005H23.0051" stroke="#ffffff" stroke-width="2" stroke-linecap="square"></path><path d="M6.99512 27.005H7.00512" stroke="#ffffff" stroke-width="2" stroke-linecap="square"></path><path d="M2.99512 27.005H3.00512" stroke="#ffffff" stroke-opacity=".01" stroke-width="2" stroke-linecap="square"></path><path d="M10.9951 27.005H11.0051" stroke="#ffffff" stroke-width="2" stroke-linecap="square"></path><path d="M14.9951 27.005H15.0051" stroke="#ffffff" stroke-width="2" stroke-linecap="square"></path><path d="M18.9951 27.005H19.0051" stroke="#ffffff" stroke-width="2" stroke-linecap="square"></path><path d="M22.9951 27.005H23.0051" stroke="#ffffff" stroke-width="2" stroke-linecap="square"></path><path d="M26.9951 27.005H27.0051" stroke="#ffffff" stroke-opacity=".01" stroke-width="2" stroke-linecap="square"></path><path d="M22.9951 15.005H23.0051" stroke="#ffffff" stroke-width="2" stroke-linecap="square"></path><path d="M22.9951 11.005H23.0051" stroke="#ffffff" stroke-width="2" stroke-linecap="square"></path><path d="M22.9951 7.005H23.0051" stroke="#ffffff" stroke-width="2" stroke-linecap="square"></path><path d="M26.9951 3.005H27.0051" stroke="#ffffff" stroke-opacity=".01" stroke-width="2" stroke-linecap="square"></path><path d="M22.9951 3.005H23.0051" stroke="#ffffff" stroke-width="2" stroke-linecap="square"></path><path d="M26.9951 23.005H27.0051" stroke="#ffffff" stroke-opacity=".01" stroke-width="2" stroke-linecap="square"></path><path d="M26.9951 19.005H27.0051" stroke="#ffffff" stroke-opacity=".01" stroke-width="2" stroke-linecap="square"></path><path d="M26.9951 15.005H27.0051" stroke="#ffffff" stroke-width="2" stroke-linecap="square"></path><path d="M26.9951 11.005H27.0051" stroke="#ffffff" stroke-width="2" stroke-linecap="square"></path><path d="M26.9951 7.005H27.0051" stroke="#ffffff" stroke-width="2" stroke-linecap="square"></path></g></svg>