<svg width="30" height="30" xmlns="http://www.w3.org/2000/svg" viewBox="0 0 30 30"><title>30 number nine sm</title><g stroke-linecap="butt" fill="none" class="nc-icon-wrapper" stroke-linejoin="miter"><path d="M3 7H3.01" stroke="#ffffff" stroke-opacity=".01" stroke-width="2" stroke-linecap="square"></path><path d="M3 11H3.01" stroke="#ffffff" stroke-opacity=".01" stroke-width="2" stroke-linecap="square"></path><path d="M3 15H3.01" stroke="#ffffff" stroke-opacity=".01" stroke-width="2" stroke-linecap="square"></path><path d="M3 19H3.01" stroke="#ffffff" stroke-opacity=".01" stroke-width="2" stroke-linecap="square"></path><path d="M3 23H3.01" stroke="#ffffff" stroke-opacity=".01" stroke-width="2" stroke-linecap="square"></path><path d="M3 27H3.01" stroke="#ffffff" stroke-opacity=".01" stroke-width="2" stroke-linecap="square"></path><path d="M7 7H7.01" stroke="#ffffff" stroke-opacity=".01" stroke-width="2" stroke-linecap="square"></path><path d="M7 11H7.01" stroke="#ffffff" stroke-opacity=".01" stroke-width="2" stroke-linecap="square"></path><path d="M7 15H7.01" stroke="#ffffff" stroke-opacity=".01" stroke-width="2" stroke-linecap="square"></path><path d="M7 23H7.01" stroke="#ffffff" stroke-opacity=".01" stroke-width="2" stroke-linecap="square"></path><path d="M7 27H7.01" stroke="#ffffff" stroke-opacity=".01" stroke-width="2" stroke-linecap="square"></path><path d="M7 19H7.01" stroke="#ffffff" stroke-opacity=".01" stroke-width="2" stroke-linecap="square"></path><path d="M23 7H23.01" stroke="#ffffff" stroke-opacity=".01" stroke-width="2" stroke-linecap="square"></path><path d="M7 3H7.01" stroke="#ffffff" stroke-opacity=".01" stroke-width="2" stroke-linecap="square"></path><path d="M3 3H3.01" stroke="#ffffff" stroke-opacity=".01" stroke-width="2" stroke-linecap="square"></path><path d="M23 3H23.01" stroke="#ffffff" stroke-opacity=".01" stroke-width="2" stroke-linecap="square"></path><path d="M27 3H27.01" stroke="#ffffff" stroke-opacity=".01" stroke-width="2" stroke-linecap="square"></path><path d="M23 15H23.01" stroke="#ffffff" stroke-opacity=".01" stroke-width="2" stroke-linecap="square"></path><path d="M23 11H23.01" stroke="#ffffff" stroke-opacity=".01" stroke-width="2" stroke-linecap="square"></path><path d="M23 19H23.01" stroke="#ffffff" stroke-opacity=".01" stroke-width="2" stroke-linecap="square"></path><path d="M23 23H23.01" stroke="#ffffff" stroke-opacity=".01" stroke-width="2" stroke-linecap="square"></path><path d="M27 27H27.01" stroke="#ffffff" stroke-opacity=".01" stroke-width="2" stroke-linecap="square"></path><path d="M23 27H23.01" stroke="#ffffff" stroke-opacity=".01" stroke-width="2" stroke-linecap="square"></path><path d="M27 7H27.01" stroke="#ffffff" stroke-opacity=".01" stroke-width="2" stroke-linecap="square"></path><path d="M27 11H27.01" stroke="#ffffff" stroke-opacity=".01" stroke-width="2" stroke-linecap="square"></path><path d="M27 15H27.01" stroke="#ffffff" stroke-opacity=".01" stroke-width="2" stroke-linecap="square"></path><path d="M27 19H27.01" stroke="#ffffff" stroke-opacity=".01" stroke-width="2" stroke-linecap="square"></path><path d="M27 23H27.01" stroke="#ffffff" stroke-opacity=".01" stroke-width="2" stroke-linecap="square"></path><path d="M19.0098 23H18.9998" stroke="#ffffff" stroke-opacity=".01" stroke-width="2" stroke-linecap="square"></path><path d="M19.0098 19H18.9998" stroke="#ffffff" stroke-width="2" stroke-linecap="square"></path><path d="M19.0098 15H18.9998" stroke="#ffffff" stroke-width="2" stroke-linecap="square"></path><path d="M19.0098 11H18.9998" stroke="#ffffff" stroke-width="2" stroke-linecap="square"></path><path d="M19.0098 7H18.9998" stroke="#ffffff" stroke-width="2" stroke-linecap="square"></path><path d="M19.0098 3H18.9998" stroke="#ffffff" stroke-opacity=".01" stroke-width="2" stroke-linecap="square"></path><path d="M15.0098 23H14.9998" stroke="#ffffff" stroke-width="2" stroke-linecap="square"></path><path d="M15.0098 19H14.9998" stroke="#ffffff" stroke-opacity=".01" stroke-width="2" stroke-linecap="square"></path><path d="M15.0098 15H14.9998" stroke="#ffffff" stroke-width="2" stroke-linecap="square"></path><path d="M15.0098 7H14.9998" stroke="#ffffff" stroke-width="2" stroke-linecap="square"></path><path d="M15.0098 3H14.9998" stroke="#ffffff" stroke-opacity=".01" stroke-width="2" stroke-linecap="square"></path><path d="M11.0098 23H10.9998" stroke="#ffffff" stroke-width="2" stroke-linecap="square"></path><path d="M11.0098 19H10.9998" stroke="#ffffff" stroke-opacity=".01" stroke-width="2" stroke-linecap="square"></path><path d="M11.0098 15H10.9998" stroke="#ffffff" stroke-width="2" stroke-linecap="square"></path><path d="M15.0098 11H14.9998" stroke="#ffffff" stroke-opacity=".01" stroke-width="2" stroke-linecap="square"></path><path d="M11.0098 11H10.9998" stroke="#ffffff" stroke-width="2" stroke-linecap="square"></path><path d="M11.0098 3H10.9998" stroke="#ffffff" stroke-opacity=".01" stroke-width="2" stroke-linecap="square"></path><path d="M11.0098 7H10.9998" stroke="#ffffff" stroke-width="2" stroke-linecap="square"></path><path d="M15.0098 27H14.9998" stroke="#ffffff" stroke-opacity=".01" stroke-width="2" stroke-linecap="square"></path><path d="M19.0098 27H18.9998" stroke="#ffffff" stroke-opacity=".01" stroke-width="2" stroke-linecap="square"></path><path d="M11.0098 27H10.9998" stroke="#ffffff" stroke-opacity=".01" stroke-width="2" stroke-linecap="square"></path></g></svg>