<svg width="30" height="30" xmlns="http://www.w3.org/2000/svg" viewBox="0 0 30 30"><title>30 open rect arrow out</title><g stroke-linejoin="miter" fill="none" stroke-linecap="butt" class="nc-icon-wrapper"><path d="M15 15.0049L15 14.9949" stroke="#ffffff" stroke-width="2" stroke-linecap="square"></path><path d="M19 15.0049L19 14.9949" stroke="#ffffff" stroke-width="2" stroke-linecap="square"></path><path d="M11 15.0051L11 14.9951" stroke="#ffffff" stroke-width="2" stroke-linecap="square"></path><path d="M3 15.0051L3 14.9951" stroke="#ffffff" stroke-width="2" stroke-linecap="square"></path><path d="M3 11.0051L3 10.9951" stroke="#ffffff" stroke-width="2" stroke-linecap="square"></path><path d="M3 7.00512L3 6.99512" stroke="#ffffff" stroke-width="2" stroke-linecap="square"></path><path d="M7 3.00512L7 2.99512" stroke="#ffffff" stroke-width="2" stroke-linecap="square"></path><path d="M3 19.0051L3 18.9951" stroke="#ffffff" stroke-width="2" stroke-linecap="square"></path><path d="M3 23.0051L3 22.9951" stroke="#ffffff" stroke-width="2" stroke-linecap="square"></path><path d="M7 27.0051L7 26.9951" stroke="#ffffff" stroke-width="2" stroke-linecap="square"></path><path d="M19 23.0051L19 22.9951" stroke="#ffffff" stroke-width="2" stroke-linecap="square"></path><path d="M23 19.0051L23 18.9951" stroke="#ffffff" stroke-width="2" stroke-linecap="square"></path><path d="M27 15.0051L27 14.9951" stroke="#ffffff" stroke-width="2" stroke-linecap="square"></path><path d="M23 15.0051L23 14.9951" stroke="#ffffff" stroke-width="2" stroke-linecap="square"></path><path d="M23 11.0051L23 10.9951" stroke="#ffffff" stroke-width="2" stroke-linecap="square"></path><path d="M19 7.00512L19 6.99512" stroke="#ffffff" stroke-width="2" stroke-linecap="square"></path><path d="M11 27.0051L11 26.9951" stroke="#ffffff" stroke-opacity=".25" stroke-width="2" stroke-linecap="square"></path><path d="M11 3.00488L11 2.99488" stroke="#ffffff" stroke-opacity=".25" stroke-width="2" stroke-linecap="square"></path><path d="M19 11.0098L19 10.9998" stroke="#ffffff" stroke-opacity=".25" stroke-width="2" stroke-linecap="square"></path><path d="M19 19.01L19 19" stroke="#ffffff" stroke-opacity=".25" stroke-width="2" stroke-linecap="square"></path><path d="M27 27H27.01" stroke="#ffffff" stroke-opacity=".01" stroke-width="2" stroke-linecap="butt"></path><path d="M27 23H27.01" stroke="#ffffff" stroke-opacity=".01" stroke-width="2" stroke-linecap="butt"></path><path d="M27 19H27.01" stroke="#ffffff" stroke-opacity=".01" stroke-width="2" stroke-linecap="butt"></path><path d="M23 23H23.01" stroke="#ffffff" stroke-opacity=".01" stroke-width="2" stroke-linecap="butt"></path><path d="M23 27H23.01" stroke="#ffffff" stroke-opacity=".01" stroke-width="2" stroke-linecap="butt"></path><path d="M19 27H19.01" stroke="#ffffff" stroke-opacity=".01" stroke-width="2" stroke-linecap="butt"></path><path d="M15 27H15.01" stroke="#ffffff" stroke-opacity=".01" stroke-width="2" stroke-linecap="butt"></path><path d="M15 23H15.01" stroke="#ffffff" stroke-opacity=".01" stroke-width="2" stroke-linecap="butt"></path><path d="M15 19H15.01" stroke="#ffffff" stroke-opacity=".01" stroke-width="2" stroke-linecap="butt"></path><path d="M11 19H11.01" stroke="#ffffff" stroke-opacity=".01" stroke-width="2" stroke-linecap="butt"></path><path d="M11 23H11.01" stroke="#ffffff" stroke-opacity=".01" stroke-width="2" stroke-linecap="butt"></path><path d="M7 23H7.01" stroke="#ffffff" stroke-opacity=".01" stroke-width="2" stroke-linecap="butt"></path><path d="M7 19H7.01" stroke="#ffffff" stroke-opacity=".01" stroke-width="2" stroke-linecap="butt"></path><path d="M7 15H7.01" stroke="#ffffff" stroke-opacity=".01" stroke-width="2" stroke-linecap="butt"></path><path d="M7 11H7.01" stroke="#ffffff" stroke-opacity=".01" stroke-width="2" stroke-linecap="butt"></path><path d="M7 7H7.01" stroke="#ffffff" stroke-opacity=".01" stroke-width="2" stroke-linecap="butt"></path><path d="M11 7H11.01" stroke="#ffffff" stroke-opacity=".01" stroke-width="2" stroke-linecap="butt"></path><path d="M11 11H11.01" stroke="#ffffff" stroke-opacity=".01" stroke-width="2" stroke-linecap="butt"></path><path d="M15 11H15.01" stroke="#ffffff" stroke-opacity=".01" stroke-width="2" stroke-linecap="butt"></path><path d="M15 7H15.01" stroke="#ffffff" stroke-opacity=".01" stroke-width="2" stroke-linecap="butt"></path><path d="M15 3H15.01" stroke="#ffffff" stroke-opacity=".01" stroke-width="2" stroke-linecap="butt"></path><path d="M19 3H19.01" stroke="#ffffff" stroke-opacity=".01" stroke-width="2" stroke-linecap="butt"></path><path d="M23 3H23.01" stroke="#ffffff" stroke-opacity=".01" stroke-width="2" stroke-linecap="butt"></path><path d="M23 7H23.01" stroke="#ffffff" stroke-opacity=".01" stroke-width="2" stroke-linecap="butt"></path><path d="M27 11H27.01" stroke="#ffffff" stroke-opacity=".01" stroke-width="2" stroke-linecap="butt"></path><path d="M27 7H27.01" stroke="#ffffff" stroke-opacity=".01" stroke-width="2" stroke-linecap="butt"></path><path d="M27 3H27.01" stroke="#ffffff" stroke-opacity=".01" stroke-width="2" stroke-linecap="butt"></path><path d="M3 3H3.01" stroke="#ffffff" stroke-opacity=".01" stroke-width="2" stroke-linecap="butt"></path><path d="M3 27H3.01" stroke="#ffffff" stroke-opacity=".01" stroke-width="2" stroke-linecap="butt"></path></g></svg>