<svg width="30" height="30" xmlns="http://www.w3.org/2000/svg" viewBox="0 0 30 30"><title>30 print</title><g stroke-linejoin="miter" fill="none" stroke-linecap="butt" class="nc-icon-wrapper"><path d="M19.0049 2.995L19.0049 3.005" stroke="#ffffff" stroke-width="2" stroke-linecap="square"></path><path d="M15.0049 2.995L15.0049 3.005" stroke="#ffffff" stroke-width="2" stroke-linecap="square"></path><path d="M11.0049 2.995L11.0049 3.005" stroke="#ffffff" stroke-width="2" stroke-linecap="square"></path><path d="M7.00488 2.995L7.00488 3.005" stroke="#ffffff" stroke-width="2" stroke-linecap="square"></path><path d="M3.00488 2.995L3.00488 3.005" stroke="#ffffff" stroke-opacity=".01" stroke-width="2" stroke-linecap="square"></path><path d="M23.0049 6.995L23.0049 7.005" stroke="#ffffff" stroke-width="2" stroke-linecap="square"></path><path d="M19.0049 6.995L19.0049 7.005" stroke="#ffffff" stroke-opacity=".25" stroke-width="2" stroke-linecap="square"></path><path d="M15.0049 6.995L15.0049 7.005" stroke="#ffffff" stroke-opacity=".25" stroke-width="2" stroke-linecap="square"></path><path d="M11.0049 6.995L11.0049 7.005" stroke="#ffffff" stroke-opacity=".25" stroke-width="2" stroke-linecap="square"></path><path d="M7.00488 6.995L7.00488 7.005" stroke="#ffffff" stroke-width="2" stroke-linecap="square"></path><path d="M3.00488 6.995L3.00488 7.005" stroke="#ffffff" stroke-opacity=".01" stroke-width="2" stroke-linecap="square"></path><path d="M23.0049 23L23.0049 23.01" stroke="#ffffff" stroke-width="2" stroke-linecap="square"></path><path d="M7.00488 23L7.00488 23.01" stroke="#ffffff" stroke-width="2" stroke-linecap="square"></path><path d="M3.00488 23L3.00488 23.01" stroke="#ffffff" stroke-opacity=".01" stroke-width="2" stroke-linecap="square"></path><path d="M23.0049 27L23.0049 27.01" stroke="#ffffff" stroke-width="2" stroke-linecap="square"></path><path d="M19.0049 27L19.0049 27.01" stroke="#ffffff" stroke-width="2" stroke-linecap="square"></path><path d="M11.0049 27L11.0049 27.01" stroke="#ffffff" stroke-width="2" stroke-linecap="square"></path><path d="M15.0049 27L15.0049 27.01" stroke="#ffffff" stroke-width="2" stroke-linecap="square"></path><path d="M7.00488 27L7.00488 27.01" stroke="#ffffff" stroke-width="2" stroke-linecap="square"></path><path d="M3.00488 27L3.00488 27.01" stroke="#ffffff" stroke-opacity=".01" stroke-width="2" stroke-linecap="square"></path><path d="M27.0049 6.995L27.0049 7.005" stroke="#ffffff" stroke-opacity=".01" stroke-width="2" stroke-linecap="square"></path><path d="M27.0049 2.995L27.0049 3.005" stroke="#ffffff" stroke-opacity=".01" stroke-width="2" stroke-linecap="square"></path><path d="M23 2.995L23 3.005" stroke="#ffffff" stroke-opacity=".01" stroke-width="2" stroke-linecap="square"></path><path d="M27.0049 23L27.0049 23.01" stroke="#ffffff" stroke-opacity=".01" stroke-width="2" stroke-linecap="square"></path><path d="M27.0049 27L27.0049 27.01" stroke="#ffffff" stroke-opacity=".01" stroke-width="2" stroke-linecap="square"></path><path d="M23.0049 11L23.0049 11.01" stroke="#ffffff" stroke-opacity=".01" stroke-width="2" stroke-linecap="square"></path><path d="M19.0049 11L19.0049 11.01" stroke="#ffffff" stroke-opacity=".01" stroke-width="2" stroke-linecap="square"></path><path d="M15.0049 11L15.0049 11.01" stroke="#ffffff" stroke-opacity=".01" stroke-width="2" stroke-linecap="square"></path><path d="M11 11L11 11.01" stroke="#ffffff" stroke-opacity=".01" stroke-width="2" stroke-linecap="square"></path><path d="M19.0049 23L19.0049 23.01" stroke="#ffffff" stroke-opacity=".01" stroke-width="2" stroke-linecap="square"></path><path d="M15.0049 23L15.0049 23.01" stroke="#ffffff" stroke-opacity=".01" stroke-width="2" stroke-linecap="square"></path><path d="M11 23L11 23.01" stroke="#ffffff" stroke-opacity=".01" stroke-width="2" stroke-linecap="square"></path><path d="M7.00488 11L7.00488 11.01" stroke="#ffffff" stroke-opacity=".01" stroke-width="2" stroke-linecap="square"></path><path d="M3.00488 11L3.00488 11.01" stroke="#ffffff" stroke-width="2" stroke-linecap="square"></path><path d="M23.0049 15L23.0049 15.01" stroke="#ffffff" stroke-width="2" stroke-linecap="square"></path><path d="M19.0049 15L19.0049 15.01" stroke="#ffffff" stroke-width="2" stroke-linecap="square"></path><path d="M27.0049 11L27.0049 11.01" stroke="#ffffff" stroke-width="2" stroke-linecap="square"></path><path d="M27.0049 15L27.0049 15.01" stroke="#ffffff" stroke-width="2" stroke-linecap="square"></path><path d="M27.0049 19L27.0049 19.01" stroke="#ffffff" stroke-width="2" stroke-linecap="square"></path><path d="M15.0049 15L15.0049 15.01" stroke="#ffffff" stroke-width="2" stroke-linecap="square"></path><path d="M11.0049 15L11.0049 15.01" stroke="#ffffff" stroke-width="2" stroke-linecap="square"></path><path d="M7.00488 15L7.00488 15.01" stroke="#ffffff" stroke-width="2" stroke-linecap="square"></path><path d="M3.00488 19L3.00488 19.01" stroke="#ffffff" stroke-width="2" stroke-linecap="square"></path><path d="M3.00488 15L3.00488 15.01" stroke="#ffffff" stroke-width="2" stroke-linecap="square"></path><path d="M23.0049 19L23.0049 19.01" stroke="#ffffff" stroke-width="2" stroke-linecap="square"></path><path d="M7.00488 19L7.00488 19.01" stroke="#ffffff" stroke-width="2" stroke-linecap="square"></path><path d="M19.0049 19L19.0049 19.01" stroke="#ffffff" stroke-opacity=".25" stroke-width="2" stroke-linecap="square"></path><path d="M15.0049 19L15.0049 19.01" stroke="#ffffff" stroke-opacity=".25" stroke-width="2" stroke-linecap="square"></path><path d="M11.0049 19L11.0049 19.01" stroke="#ffffff" stroke-opacity=".25" stroke-width="2" stroke-linecap="square"></path></g></svg>