<svg width="30" height="30" xmlns="http://www.w3.org/2000/svg" viewBox="0 0 30 30"><title>30 scale from bottom left 2</title><g stroke-linejoin="miter" fill="none" stroke-linecap="butt" class="nc-icon-wrapper"><path d="M23 3L23 3.01" stroke="#ffffff" stroke-width="2" stroke-linecap="square"></path><path d="M19 3L19 3.01" stroke="#ffffff" stroke-width="2" stroke-linecap="square"></path><path d="M15 3L15 3.01" stroke="#ffffff" stroke-width="2" stroke-linecap="square"></path><path d="M11 3L11 3.01" stroke="#ffffff" stroke-width="2" stroke-linecap="square"></path><path d="M7 3L7 3.01" stroke="#ffffff" stroke-width="2" stroke-linecap="square"></path><path d="M3 3L3 3.01" stroke="#ffffff" stroke-opacity=".01" stroke-width="2" stroke-linecap="butt"></path><path d="M15 7L15 7.01" stroke="#ffffff" stroke-opacity=".01" stroke-width="2" stroke-linecap="butt"></path><path d="M7 7L7 7.01" stroke="#ffffff" stroke-opacity=".01" stroke-width="2" stroke-linecap="butt"></path><path d="M7 26.995L7 27.005" stroke="#ffffff" stroke-width="2" stroke-linecap="square"></path><path d="M11 26.995L11 27.005" stroke="#ffffff" stroke-width="2" stroke-linecap="square"></path><path d="M15 26.995L15 27.005" stroke="#ffffff" stroke-opacity=".01" stroke-width="2" stroke-linecap="butt"></path><path d="M27 11L27 11.01" stroke="#ffffff" stroke-width="2" stroke-linecap="square"></path><path d="M19 11L19 11.01" stroke="#ffffff" stroke-opacity=".01" stroke-width="2" stroke-linecap="butt"></path><path d="M19 14.99L19 15" stroke="#ffffff" stroke-opacity=".01" stroke-width="2" stroke-linecap="butt"></path><path d="M15 11L15 11.01" stroke="#ffffff" stroke-opacity=".01" stroke-width="2" stroke-linecap="butt"></path><path d="M11 7L11 7.01" stroke="#ffffff" stroke-opacity=".01" stroke-width="2" stroke-linecap="butt"></path><path d="M11 11L11 11.01" stroke="#ffffff" stroke-opacity=".01" stroke-width="2" stroke-linecap="butt"></path><path d="M23 15L23 15.01" stroke="#ffffff" stroke-opacity=".01" stroke-width="2" stroke-linecap="butt"></path><path d="M23 18.99L23 19" stroke="#ffffff" stroke-opacity=".01" stroke-width="2" stroke-linecap="butt"></path><path d="M15 15L15 15.01" stroke="#ffffff" stroke-opacity=".01" stroke-width="2" stroke-linecap="butt"></path><path d="M7 15L7 15.01" stroke="#ffffff" stroke-opacity=".01" stroke-width="2" stroke-linecap="butt"></path><path d="M3 15L3 15.01" stroke="#ffffff" stroke-opacity=".01" stroke-width="2" stroke-linecap="butt"></path><path d="M3 18.995L3 19.005" stroke="#ffffff" stroke-width="2" stroke-linecap="square"></path><path d="M3 22.995L3 23.005" stroke="#ffffff" stroke-width="2" stroke-linecap="square"></path><path d="M7 11L7 11.01" stroke="#ffffff" stroke-opacity=".01" stroke-width="2" stroke-linecap="butt"></path><path d="M11 15L11 15.01" stroke="#ffffff" stroke-opacity=".01" stroke-width="2" stroke-linecap="butt"></path><path d="M3 10.995L3 11.005" stroke="#ffffff" stroke-width="2" stroke-linecap="square"></path><path d="M3 6.995L3 7.005" stroke="#ffffff" stroke-width="2" stroke-linecap="square"></path><path d="M19 19L19 19.01" stroke="#ffffff" stroke-opacity=".01" stroke-width="2" stroke-linecap="butt"></path><path d="M19 22.995L19 23.005" stroke="#ffffff" stroke-opacity=".01" stroke-width="2" stroke-linecap="butt"></path><path d="M11 19L11 19.01" stroke="#ffffff" stroke-width="2" stroke-linecap="square"></path><path d="M15 19L15 19.01" stroke="#ffffff" stroke-opacity=".01" stroke-width="2" stroke-linecap="butt"></path><path d="M7 19L7 19.01" stroke="#ffffff" stroke-width="2" stroke-linecap="square"></path><path d="M23 23L23 23.01" stroke="#ffffff" stroke-opacity=".01" stroke-width="2" stroke-linecap="butt"></path><path d="M27 7L27 7.01" stroke="#ffffff" stroke-width="2" stroke-linecap="square"></path><path d="M27 3L27 3.01" stroke="#ffffff" stroke-opacity=".01" stroke-width="2" stroke-linecap="butt"></path><path d="M27 15L27 15.01" stroke="#ffffff" stroke-width="2" stroke-linecap="square"></path><path d="M27 19L27 19.01" stroke="#ffffff" stroke-width="2" stroke-linecap="square"></path><path d="M27 23L27 23.01" stroke="#ffffff" stroke-width="2" stroke-linecap="square"></path><path d="M27 27L27 27.01" stroke="#ffffff" stroke-opacity=".01" stroke-width="2" stroke-linecap="butt"></path><path d="M15 23L15 23.01" stroke="#ffffff" stroke-opacity=".01" stroke-width="2" stroke-linecap="butt"></path><path d="M11 23L11 23.01" stroke="#ffffff" stroke-width="2" stroke-linecap="square"></path><path d="M7 23L7 23.01" stroke="#ffffff" stroke-opacity=".01" stroke-width="2" stroke-linecap="butt"></path><path d="M3 27L3 27.01" stroke="#ffffff" stroke-width="2" stroke-linecap="square"></path><path d="M23 27L23 27.01" stroke="#ffffff" stroke-width="2" stroke-linecap="square"></path><path d="M19 27L19 27.01" stroke="#ffffff" stroke-width="2" stroke-linecap="square"></path><path d="M23 7L23.01 7" stroke="#ffffff" stroke-opacity=".25" stroke-width="2" stroke-linecap="square"></path><path d="M19 7L19.01 7" stroke="#ffffff" stroke-opacity=".25" stroke-width="2" stroke-linecap="square"></path><path d="M23 11L23.01 11" stroke="#ffffff" stroke-opacity=".25" stroke-width="2" stroke-linecap="square"></path></g></svg>