<svg width="30" height="30" xmlns="http://www.w3.org/2000/svg" viewBox="0 0 30 30"><title>30 square sparkle</title><g stroke-linejoin="miter" fill="none" stroke-linecap="butt" class="nc-icon-wrapper"><path d="M7 27.005L7 26.995" stroke="#ffffff" stroke-width="2" stroke-linecap="square"></path><path d="M11 27.005L11 26.995" stroke="#ffffff" stroke-width="2" stroke-linecap="square"></path><path d="M15 27.005L15 26.995" stroke="#ffffff" stroke-width="2" stroke-linecap="square"></path><path d="M19 27.005L19 26.995" stroke="#ffffff" stroke-width="2" stroke-linecap="square"></path><path d="M23 27.005L23 26.995" stroke="#ffffff" stroke-width="2" stroke-linecap="square"></path><path d="M27 27.005L27 26.995" stroke="#ffffff" stroke-opacity=".01" stroke-width="2" stroke-linecap="butt"></path><path d="M15 23.005L15 22.995" stroke="#ffffff" stroke-opacity=".01" stroke-width="2" stroke-linecap="butt"></path><path d="M23 23.005L23 22.995" stroke="#ffffff" stroke-opacity=".01" stroke-width="2" stroke-linecap="butt"></path><path d="M3 19.005L3 18.995" stroke="#ffffff" stroke-width="2" stroke-linecap="square"></path><path d="M11 19.005L11 18.995" stroke="#ffffff" stroke-opacity=".01" stroke-width="2" stroke-linecap="butt"></path><path d="M11 15.015L11 15.005" stroke="#ffffff" stroke-opacity=".01" stroke-width="2" stroke-linecap="butt"></path><path d="M15 19.005L15 18.995" stroke="#ffffff" stroke-opacity=".01" stroke-width="2" stroke-linecap="butt"></path><path d="M19 23.005L19 22.995" stroke="#ffffff" stroke-opacity=".01" stroke-width="2" stroke-linecap="butt"></path><path d="M19 19.005L19 18.995" stroke="#ffffff" stroke-opacity=".01" stroke-width="2" stroke-linecap="butt"></path><path d="M7 15.005L7 14.995" stroke="#ffffff" stroke-opacity=".01" stroke-width="2" stroke-linecap="butt"></path><path d="M7 11.015L7 11.005" stroke="#ffffff" stroke-opacity=".01" stroke-width="2" stroke-linecap="butt"></path><path d="M15 15.005L15 14.995" stroke="#ffffff" stroke-opacity=".01" stroke-width="2" stroke-linecap="butt"></path><path d="M19 15.005L19 14.995" stroke="#ffffff" stroke-opacity=".01" stroke-width="2" stroke-linecap="butt"></path><path d="M27 15.005L27 14.995" stroke="#ffffff" stroke-opacity=".01" stroke-width="2" stroke-linecap="butt"></path><path d="M27 19.01L27 19" stroke="#ffffff" stroke-opacity=".01" stroke-width="2" stroke-linecap="butt"></path><path d="M11 11.005L11 10.995" stroke="#ffffff" stroke-opacity=".01" stroke-width="2" stroke-linecap="butt"></path><path d="M23 11.005L23 10.995" stroke="#ffffff" stroke-opacity=".01" stroke-width="2" stroke-linecap="butt"></path><path d="M7 7.005L7 6.995" stroke="#ffffff" stroke-opacity=".01" stroke-width="2" stroke-linecap="butt"></path><path d="M3 23.005L3 22.995" stroke="#ffffff" stroke-width="2" stroke-linecap="square"></path><path d="M3 27.005L3 26.995" stroke="#ffffff" stroke-opacity=".01" stroke-width="2" stroke-linecap="butt"></path><path d="M3 15.005L3 14.995" stroke="#ffffff" stroke-width="2" stroke-linecap="square"></path><path d="M3 11.005L3 10.995" stroke="#ffffff" stroke-width="2" stroke-linecap="square"></path><path d="M3 7.005L3 6.995" stroke="#ffffff" stroke-width="2" stroke-linecap="square"></path><path d="M3 3.005L3 2.995" stroke="#ffffff" stroke-opacity=".01" stroke-width="2" stroke-linecap="butt"></path><path d="M15 7.005L15 6.995" stroke="#ffffff" stroke-opacity=".01" stroke-width="2" stroke-linecap="butt"></path><path d="M11 7.005L11 6.995" stroke="#ffffff" stroke-opacity=".01" stroke-width="2" stroke-linecap="butt"></path><path d="M19 7.005L19 6.995" stroke="#ffffff" stroke-opacity=".01" stroke-width="2" stroke-linecap="butt"></path><path d="M27 3.005L27 2.995" stroke="#ffffff" stroke-opacity=".01" stroke-width="2" stroke-linecap="butt"></path><path d="M27 7.005L27 6.995" stroke="#ffffff" stroke-opacity=".01" stroke-width="2" stroke-linecap="butt"></path><path d="M7 3.005L7 2.995" stroke="#ffffff" stroke-width="2" stroke-linecap="square"></path><path d="M11 3.005L11 2.995" stroke="#ffffff" stroke-width="2" stroke-linecap="square"></path><path d="M15 3.005L15 2.995" stroke="#ffffff" stroke-width="2" stroke-linecap="square"></path><path d="M27 23.01L27 23" stroke="#ffffff" stroke-opacity=".01" stroke-width="2" stroke-linecap="butt"></path><path d="M19 3.005L19 2.995" stroke="#ffffff" stroke-opacity=".01" stroke-width="2" stroke-linecap="butt"></path><path d="M19 11H19.01" stroke="#ffffff" stroke-width="2" stroke-linecap="square"></path><path d="M23 3H23.01" stroke="#ffffff" stroke-width="2" stroke-linecap="square"></path><path d="M23 15H23.01" stroke="#ffffff" stroke-width="2" stroke-linecap="square"></path><path d="M27 11H27.01" stroke="#ffffff" stroke-width="2" stroke-linecap="square"></path><path d="M23 19H23.01" stroke="#ffffff" stroke-width="2" stroke-linecap="square"></path><path d="M23 7H23.01" stroke="#ffffff" stroke-width="2" stroke-linecap="square"></path><path d="M15.0078 11L14.9978 11" stroke="#ffffff" stroke-opacity=".25" stroke-width="2" stroke-linecap="square"></path><path d="M7.00977 19L6.99977 19" stroke="#ffffff" stroke-opacity=".25" stroke-width="2" stroke-linecap="square"></path><path d="M7.00977 23L6.99977 23" stroke="#ffffff" stroke-opacity=".25" stroke-width="2" stroke-linecap="square"></path><path d="M11.0098 23L10.9998 23" stroke="#ffffff" stroke-opacity=".25" stroke-width="2" stroke-linecap="square"></path></g></svg>