<svg width="30" height="30" xmlns="http://www.w3.org/2000/svg" viewBox="0 0 30 30"><title>30 square arrow up left</title><g stroke-linejoin="miter" fill="none" stroke-linecap="butt" class="nc-icon-wrapper"><path d="M27.0098 7H26.9998" stroke="#ffffff" stroke-width="2" stroke-linecap="square"></path><path d="M27.0098 11H26.9998" stroke="#ffffff" stroke-width="2" stroke-linecap="square"></path><path d="M27.0098 15H26.9998" stroke="#ffffff" stroke-width="2" stroke-linecap="square"></path><path d="M27.0098 19H26.9998" stroke="#ffffff" stroke-width="2" stroke-linecap="square"></path><path d="M27.0098 23H26.9998" stroke="#ffffff" stroke-width="2" stroke-linecap="square"></path><path d="M27.0098 27H26.9998" stroke="#ffffff" stroke-opacity=".01" stroke-width="2" stroke-linecap="butt"></path><path d="M23.0098 27H22.9998" stroke="#ffffff" stroke-opacity=".01" stroke-width="2" stroke-linecap="butt"></path><path d="M19.0098 27H18.9998" stroke="#ffffff" stroke-opacity=".01" stroke-width="2" stroke-linecap="butt"></path><path d="M23.0098 7H22.9998" stroke="#ffffff" stroke-opacity=".01" stroke-width="2" stroke-linecap="butt"></path><path d="M23.0098 15H22.9998" stroke="#ffffff" stroke-opacity=".25" stroke-width="2" stroke-linecap="square"></path><path d="M23.0098 23H22.9998" stroke="#ffffff" stroke-width="2" stroke-linecap="square"></path><path d="M19.0098 7H18.9998" stroke="#ffffff" stroke-opacity=".01" stroke-width="2" stroke-linecap="butt"></path><path d="M19.0098 3H18.9998" stroke="#ffffff" stroke-width="2" stroke-linecap="square"></path><path d="M19.0098 11H18.9998" stroke="#ffffff" stroke-width="2" stroke-linecap="square"></path><path d="M15.0176 11H15.0076" stroke="#ffffff" stroke-width="2" stroke-linecap="square"></path><path d="M23.0098 19H22.9998" stroke="#ffffff" stroke-opacity=".25" stroke-width="2" stroke-linecap="square"></path><path d="M19.0098 19H18.9998" stroke="#ffffff" stroke-width="2" stroke-linecap="square"></path><path d="M15.0098 7H14.9998" stroke="#ffffff" stroke-opacity=".01" stroke-width="2" stroke-linecap="butt"></path><path d="M11.0176 7H11.0076" stroke="#ffffff" stroke-opacity=".01" stroke-width="2" stroke-linecap="butt"></path><path d="M15.0098 15H14.9998" stroke="#ffffff" stroke-width="2" stroke-linecap="square"></path><path d="M15.0098 23H14.9998" stroke="#ffffff" stroke-opacity=".01" stroke-width="2" stroke-linecap="butt"></path><path d="M11.0098 23H10.9998" stroke="#ffffff" stroke-opacity=".01" stroke-width="2" stroke-linecap="butt"></path><path d="M19.0098 23H18.9998" stroke="#ffffff" stroke-opacity=".01" stroke-width="2" stroke-linecap="butt"></path><path d="M15.0098 19H14.9998" stroke="#ffffff" stroke-opacity=".25" stroke-width="2" stroke-linecap="square"></path><path d="M15.0098 27H14.9998" stroke="#ffffff" stroke-width="2" stroke-linecap="square"></path><path d="M11.0098 11H10.9998" stroke="#ffffff" stroke-width="2" stroke-linecap="square"></path><path d="M11.0098 19H10.9998" stroke="#ffffff" stroke-width="2" stroke-linecap="square"></path><path d="M11.0098 15H10.9998" stroke="#ffffff" stroke-width="2" stroke-linecap="square"></path><path d="M11.0098 27H10.9998" stroke="#ffffff" stroke-width="2" stroke-linecap="square"></path><path d="M7.00977 7H6.99977" stroke="#ffffff" stroke-opacity=".01" stroke-width="2" stroke-linecap="butt"></path><path d="M23.0098 3H22.9998" stroke="#ffffff" stroke-width="2" stroke-linecap="square"></path><path d="M27.0098 3H26.9998" stroke="#ffffff" stroke-opacity=".01" stroke-width="2" stroke-linecap="butt"></path><path d="M15.0098 3H14.9998" stroke="#ffffff" stroke-width="2" stroke-linecap="square"></path><path d="M11.0098 3H10.9998" stroke="#ffffff" stroke-width="2" stroke-linecap="square"></path><path d="M7.00977 3H6.99977" stroke="#ffffff" stroke-width="2" stroke-linecap="square"></path><path d="M3.00977 3H2.99977" stroke="#ffffff" stroke-opacity=".01" stroke-width="2" stroke-linecap="butt"></path><path d="M7.00977 15H6.99977" stroke="#ffffff" stroke-opacity=".01" stroke-width="2" stroke-linecap="butt"></path><path d="M7.00977 11H6.99977" stroke="#ffffff" stroke-opacity=".01" stroke-width="2" stroke-linecap="butt"></path><path d="M7.00977 19H6.99977" stroke="#ffffff" stroke-opacity=".01" stroke-width="2" stroke-linecap="butt"></path><path d="M23.0078 11H22.9978" stroke="#ffffff" stroke-opacity=".01" stroke-width="2" stroke-linecap="butt"></path><path d="M19.0098 15H18.9998" stroke="#ffffff" stroke-opacity=".01" stroke-width="2" stroke-linecap="butt"></path><path d="M3.00977 27H2.99977" stroke="#ffffff" stroke-opacity=".01" stroke-width="2" stroke-linecap="butt"></path><path d="M7.00977 27H6.99977" stroke="#ffffff" stroke-width="2" stroke-linecap="square"></path><path d="M3.00977 7H2.99977" stroke="#ffffff" stroke-width="2" stroke-linecap="square"></path><path d="M3.00977 11H2.99977" stroke="#ffffff" stroke-width="2" stroke-linecap="square"></path><path d="M3.00977 15H2.99977" stroke="#ffffff" stroke-width="2" stroke-linecap="square"></path><path d="M3.00977 19H2.99977" stroke="#ffffff" stroke-width="2" stroke-linecap="square"></path><path d="M3.00977 23H2.99977" stroke="#ffffff" stroke-width="2" stroke-linecap="square"></path><path d="M7.00977 23H6.99977" stroke="#ffffff" stroke-opacity=".25" stroke-width="2" stroke-linecap="square"></path></g></svg>