<svg width="30" height="30" xmlns="http://www.w3.org/2000/svg" viewBox="0 0 30 30"><title>30 scale from bottom right 2</title><g stroke-linejoin="miter" fill="none" stroke-linecap="butt" class="nc-icon-wrapper"><path d="M2.99756 7.0025H3.00756" stroke="#ffffff" stroke-width="2" stroke-linecap="square"></path><path d="M2.99756 11.0025H3.00756" stroke="#ffffff" stroke-width="2" stroke-linecap="square"></path><path d="M2.99756 15.0025H3.00756" stroke="#ffffff" stroke-width="2" stroke-linecap="square"></path><path d="M3 19.0029H3.01" stroke="#ffffff" stroke-width="2" stroke-linecap="square"></path><path d="M3 23H3.01" stroke="#ffffff" stroke-width="2" stroke-linecap="square"></path><path d="M2.99756 27.0025H3.00756" stroke="#ffffff" stroke-opacity=".01" stroke-width="2" stroke-linecap="butt"></path><path d="M6.99756 15.0025H7.00756" stroke="#ffffff" stroke-opacity=".01" stroke-width="2" stroke-linecap="butt"></path><path d="M6.99756 23.0025H7.00756" stroke="#ffffff" stroke-opacity=".01" stroke-width="2" stroke-linecap="butt"></path><path d="M26.9927 23.0025H27.0027" stroke="#ffffff" stroke-width="2" stroke-linecap="square"></path><path d="M26.9927 19.0025H27.0027" stroke="#ffffff" stroke-width="2" stroke-linecap="square"></path><path d="M26.9927 15.0025H27.0027" stroke="#ffffff" stroke-opacity=".01" stroke-width="2" stroke-linecap="butt"></path><path d="M10.9976 3.0025H11.0076" stroke="#ffffff" stroke-width="2" stroke-linecap="square"></path><path d="M10.9976 11.0025H11.0076" stroke="#ffffff" stroke-opacity=".01" stroke-width="2" stroke-linecap="butt"></path><path d="M14.9873 11.0025H14.9973" stroke="#ffffff" stroke-opacity=".01" stroke-width="2" stroke-linecap="butt"></path><path d="M10.9976 15.0025H11.0076" stroke="#ffffff" stroke-opacity=".01" stroke-width="2" stroke-linecap="butt"></path><path d="M6.99756 19.0025H7.00756" stroke="#ffffff" stroke-opacity=".01" stroke-width="2" stroke-linecap="butt"></path><path d="M10.9976 19.0025H11.0076" stroke="#ffffff" stroke-opacity=".01" stroke-width="2" stroke-linecap="butt"></path><path d="M14.9976 7.0025H15.0076" stroke="#ffffff" stroke-opacity=".01" stroke-width="2" stroke-linecap="butt"></path><path d="M18.9873 7.0025H18.9973" stroke="#ffffff" stroke-opacity=".01" stroke-width="2" stroke-linecap="butt"></path><path d="M14.9976 15.0025H15.0076" stroke="#ffffff" stroke-opacity=".01" stroke-width="2" stroke-linecap="butt"></path><path d="M14.9976 23.0025H15.0076" stroke="#ffffff" stroke-opacity=".01" stroke-width="2" stroke-linecap="butt"></path><path d="M14.9976 27.0025H15.0076" stroke="#ffffff" stroke-opacity=".01" stroke-width="2" stroke-linecap="butt"></path><path d="M18.9927 27.0025H19.0027" stroke="#ffffff" stroke-width="2" stroke-linecap="square"></path><path d="M22.9927 27.0025H23.0027" stroke="#ffffff" stroke-width="2" stroke-linecap="square"></path><path d="M10.9976 23.0025H11.0076" stroke="#ffffff" stroke-opacity=".01" stroke-width="2" stroke-linecap="butt"></path><path d="M14.9976 19.0025H15.0076" stroke="#ffffff" stroke-opacity=".01" stroke-width="2" stroke-linecap="butt"></path><path d="M10.9927 27.0025H11.0027" stroke="#ffffff" stroke-width="2" stroke-linecap="square"></path><path d="M6.99268 27.0025H7.00268" stroke="#ffffff" stroke-width="2" stroke-linecap="square"></path><path d="M18.9976 11.0025H19.0076" stroke="#ffffff" stroke-opacity=".01" stroke-width="2" stroke-linecap="butt"></path><path d="M22.9927 11.0025H23.0027" stroke="#ffffff" stroke-opacity=".01" stroke-width="2" stroke-linecap="butt"></path><path d="M18.9976 19.0025H19.0076" stroke="#ffffff" stroke-width="2" stroke-linecap="square"></path><path d="M18.9976 15.0025H19.0076" stroke="#ffffff" stroke-opacity=".01" stroke-width="2" stroke-linecap="butt"></path><path d="M18.9976 23.0025H19.0076" stroke="#ffffff" stroke-width="2" stroke-linecap="square"></path><path d="M22.9976 7.0025H23.0076" stroke="#ffffff" stroke-opacity=".01" stroke-width="2" stroke-linecap="butt"></path><path d="M6.99756 3.0025H7.00756" stroke="#ffffff" stroke-width="2" stroke-linecap="square"></path><path d="M2.99756 3.0025H3.00756" stroke="#ffffff" stroke-opacity=".01" stroke-width="2" stroke-linecap="butt"></path><path d="M14.9976 3.0025H15.0076" stroke="#ffffff" stroke-width="2" stroke-linecap="square"></path><path d="M18.9976 3.0025H19.0076" stroke="#ffffff" stroke-width="2" stroke-linecap="square"></path><path d="M22.9976 3.0025H23.0076" stroke="#ffffff" stroke-width="2" stroke-linecap="square"></path><path d="M26.9976 3.0025H27.0076" stroke="#ffffff" stroke-opacity=".01" stroke-width="2" stroke-linecap="butt"></path><path d="M22.9976 15.0025H23.0076" stroke="#ffffff" stroke-opacity=".01" stroke-width="2" stroke-linecap="butt"></path><path d="M22.9976 19.0025H23.0076" stroke="#ffffff" stroke-width="2" stroke-linecap="square"></path><path d="M22.9976 23.0025H23.0076" stroke="#ffffff" stroke-opacity=".01" stroke-width="2" stroke-linecap="butt"></path><path d="M26.9976 27.0025H27.0076" stroke="#ffffff" stroke-width="2" stroke-linecap="square"></path><path d="M26.9976 7.0025H27.0076" stroke="#ffffff" stroke-width="2" stroke-linecap="square"></path><path d="M26.9976 11.0025H27.0076" stroke="#ffffff" stroke-width="2" stroke-linecap="square"></path><path d="M7 7L7.01 7" stroke="#ffffff" stroke-opacity=".25" stroke-width="2" stroke-linecap="square"></path><path d="M11 7L11.01 7" stroke="#ffffff" stroke-opacity=".25" stroke-width="2" stroke-linecap="square"></path><path d="M7 11L7.01 11" stroke="#ffffff" stroke-opacity=".25" stroke-width="2" stroke-linecap="square"></path></g></svg>