<svg width="30" height="30" xmlns="http://www.w3.org/2000/svg" viewBox="0 0 30 30"><title>30 scale from top left 2</title><g stroke-linejoin="miter" fill="none" stroke-linecap="butt" class="nc-icon-wrapper"><path d="M27.0024 23.0025L26.9924 23.0025" stroke="#ffffff" stroke-width="2" stroke-linecap="square"></path><path d="M27.0024 19.0025L26.9924 19.0025" stroke="#ffffff" stroke-width="2" stroke-linecap="square"></path><path d="M27.0024 15.0025L26.9924 15.0025" stroke="#ffffff" stroke-width="2" stroke-linecap="square"></path><path d="M27 11.0029L26.99 11.0029" stroke="#ffffff" stroke-width="2" stroke-linecap="square"></path><path d="M27 7L26.99 7" stroke="#ffffff" stroke-width="2" stroke-linecap="square"></path><path d="M27.0024 3.0025L26.9924 3.0025" stroke="#ffffff" stroke-opacity=".01" stroke-width="2" stroke-linecap="butt"></path><path d="M23.0024 15.0025L22.9924 15.0025" stroke="#ffffff" stroke-opacity=".01" stroke-width="2" stroke-linecap="butt"></path><path d="M23.0024 7.0025L22.9924 7.0025" stroke="#ffffff" stroke-opacity=".01" stroke-width="2" stroke-linecap="butt"></path><path d="M3.00732 7.0025L2.99732 7.0025" stroke="#ffffff" stroke-width="2" stroke-linecap="square"></path><path d="M3.00732 11.0025L2.99732 11.0025" stroke="#ffffff" stroke-width="2" stroke-linecap="square"></path><path d="M3.00732 15.0025L2.99732 15.0025" stroke="#ffffff" stroke-opacity=".01" stroke-width="2" stroke-linecap="butt"></path><path d="M19.0024 27.0025L18.9924 27.0025" stroke="#ffffff" stroke-width="2" stroke-linecap="square"></path><path d="M19.0024 19.0025L18.9924 19.0025" stroke="#ffffff" stroke-opacity=".01" stroke-width="2" stroke-linecap="butt"></path><path d="M15.0127 19.0025L15.0027 19.0025" stroke="#ffffff" stroke-opacity=".01" stroke-width="2" stroke-linecap="butt"></path><path d="M19.0024 15.0025L18.9924 15.0025" stroke="#ffffff" stroke-opacity=".01" stroke-width="2" stroke-linecap="butt"></path><path d="M23.0024 11.0025L22.9924 11.0025" stroke="#ffffff" stroke-opacity=".01" stroke-width="2" stroke-linecap="butt"></path><path d="M19.0024 11.0025L18.9924 11.0025" stroke="#ffffff" stroke-opacity=".01" stroke-width="2" stroke-linecap="butt"></path><path d="M15.0024 23.0025L14.9924 23.0025" stroke="#ffffff" stroke-opacity=".01" stroke-width="2" stroke-linecap="butt"></path><path d="M11.0127 23.0025L11.0027 23.0025" stroke="#ffffff" stroke-opacity=".01" stroke-width="2" stroke-linecap="butt"></path><path d="M15.0024 15.0025L14.9924 15.0025" stroke="#ffffff" stroke-opacity=".01" stroke-width="2" stroke-linecap="butt"></path><path d="M15.0024 7.0025L14.9924 7.0025" stroke="#ffffff" stroke-opacity=".01" stroke-width="2" stroke-linecap="butt"></path><path d="M15.0024 3.0025L14.9924 3.0025" stroke="#ffffff" stroke-opacity=".01" stroke-width="2" stroke-linecap="butt"></path><path d="M11.0073 3.0025L10.9973 3.0025" stroke="#ffffff" stroke-width="2" stroke-linecap="square"></path><path d="M7.00732 3.0025L6.99732 3.0025" stroke="#ffffff" stroke-width="2" stroke-linecap="square"></path><path d="M19.0024 7.0025L18.9924 7.0025" stroke="#ffffff" stroke-opacity=".01" stroke-width="2" stroke-linecap="butt"></path><path d="M15.0024 11.0025L14.9924 11.0025" stroke="#ffffff" stroke-opacity=".01" stroke-width="2" stroke-linecap="butt"></path><path d="M19.0073 3.0025L18.9973 3.0025" stroke="#ffffff" stroke-width="2" stroke-linecap="square"></path><path d="M23.0073 3.0025L22.9973 3.0025" stroke="#ffffff" stroke-width="2" stroke-linecap="square"></path><path d="M11.0024 19.0025L10.9924 19.0025" stroke="#ffffff" stroke-opacity=".01" stroke-width="2" stroke-linecap="butt"></path><path d="M7.00732 19.0025L6.99732 19.0025" stroke="#ffffff" stroke-opacity=".01" stroke-width="2" stroke-linecap="butt"></path><path d="M11.0024 11.0025L10.9924 11.0025" stroke="#ffffff" stroke-width="2" stroke-linecap="square"></path><path d="M11.0024 15.0025L10.9924 15.0025" stroke="#ffffff" stroke-opacity=".01" stroke-width="2" stroke-linecap="butt"></path><path d="M11.0024 7.0025L10.9924 7.0025" stroke="#ffffff" stroke-width="2" stroke-linecap="square"></path><path d="M7.00244 23.0025L6.99244 23.0025" stroke="#ffffff" stroke-opacity=".01" stroke-width="2" stroke-linecap="butt"></path><path d="M23.0024 27.0025L22.9924 27.0025" stroke="#ffffff" stroke-width="2" stroke-linecap="square"></path><path d="M27.0024 27.0025L26.9924 27.0025" stroke="#ffffff" stroke-opacity=".01" stroke-width="2" stroke-linecap="butt"></path><path d="M15.0024 27.0025L14.9924 27.0025" stroke="#ffffff" stroke-width="2" stroke-linecap="square"></path><path d="M11.0024 27.0025L10.9924 27.0025" stroke="#ffffff" stroke-width="2" stroke-linecap="square"></path><path d="M7.00244 27.0025L6.99244 27.0025" stroke="#ffffff" stroke-width="2" stroke-linecap="square"></path><path d="M3.00244 27.0025L2.99244 27.0025" stroke="#ffffff" stroke-opacity=".01" stroke-width="2" stroke-linecap="butt"></path><path d="M7.00244 15.0025L6.99244 15.0025" stroke="#ffffff" stroke-opacity=".01" stroke-width="2" stroke-linecap="butt"></path><path d="M7.00244 11.0025L6.99244 11.0025" stroke="#ffffff" stroke-width="2" stroke-linecap="square"></path><path d="M7.00244 7.0025L6.99244 7.0025" stroke="#ffffff" stroke-opacity=".01" stroke-width="2" stroke-linecap="butt"></path><path d="M3.00244 3.0025L2.99244 3.0025" stroke="#ffffff" stroke-width="2" stroke-linecap="square"></path><path d="M3.00244 23.0025L2.99244 23.0025" stroke="#ffffff" stroke-width="2" stroke-linecap="square"></path><path d="M3.00244 19.0025L2.99244 19.0025" stroke="#ffffff" stroke-width="2" stroke-linecap="square"></path><path d="M23.0098 19L22.9998 19" stroke="#ffffff" stroke-opacity=".25" stroke-width="2" stroke-linecap="square"></path><path d="M23.0098 23L22.9998 23" stroke="#ffffff" stroke-opacity=".25" stroke-width="2" stroke-linecap="square"></path><path d="M19.0098 23L18.9998 23" stroke="#ffffff" stroke-opacity=".25" stroke-width="2" stroke-linecap="square"></path></g></svg>