<svg width="30" height="30" xmlns="http://www.w3.org/2000/svg" viewBox="0 0 30 30"><title>30 square arrow down right</title><g stroke-linejoin="miter" fill="none" stroke-linecap="butt" class="nc-icon-wrapper"><path d="M3.00293 23.0001L3.01293 23.0001" stroke="#ffffff" stroke-width="2" stroke-linecap="square"></path><path d="M3.00293 19.0001L3.01293 19.0001" stroke="#ffffff" stroke-width="2" stroke-linecap="square"></path><path d="M3.00293 15.0001L3.01293 15.0001" stroke="#ffffff" stroke-width="2" stroke-linecap="square"></path><path d="M3.00293 11.0001L3.01293 11.0001" stroke="#ffffff" stroke-width="2" stroke-linecap="square"></path><path d="M3.00293 7.00011L3.01293 7.00011" stroke="#ffffff" stroke-width="2" stroke-linecap="square"></path><path d="M3.00293 3.00011L3.01293 3.00011" stroke="#ffffff" stroke-opacity=".01" stroke-width="2" stroke-linecap="butt"></path><path d="M7.00293 3.00011L7.01293 3.00011" stroke="#ffffff" stroke-opacity=".01" stroke-width="2" stroke-linecap="butt"></path><path d="M11.0029 3.00011L11.0129 3.00011" stroke="#ffffff" stroke-opacity=".01" stroke-width="2" stroke-linecap="butt"></path><path d="M7.00293 23.0001L7.01293 23.0001" stroke="#ffffff" stroke-opacity=".01" stroke-width="2" stroke-linecap="butt"></path><path d="M7.00293 15.0001L7.01293 15.0001" stroke="#ffffff" stroke-opacity=".25" stroke-width="2" stroke-linecap="square"></path><path d="M7.00293 7.00011L7.01293 7.00011" stroke="#ffffff" stroke-width="2" stroke-linecap="square"></path><path d="M11.0029 23.0001L11.0129 23.0001" stroke="#ffffff" stroke-opacity=".01" stroke-width="2" stroke-linecap="butt"></path><path d="M11.0029 27.0001L11.0129 27.0001" stroke="#ffffff" stroke-width="2" stroke-linecap="square"></path><path d="M11.0029 19.0001L11.0129 19.0001" stroke="#ffffff" stroke-width="2" stroke-linecap="square"></path><path d="M14.9951 19.0001L15.0051 19.0001" stroke="#ffffff" stroke-width="2" stroke-linecap="square"></path><path d="M7.00293 11.0001L7.01293 11.0001" stroke="#ffffff" stroke-opacity=".25" stroke-width="2" stroke-linecap="square"></path><path d="M11.0029 11.0001L11.0129 11.0001" stroke="#ffffff" stroke-width="2" stroke-linecap="square"></path><path d="M15.0029 23.0001L15.0129 23.0001" stroke="#ffffff" stroke-opacity=".01" stroke-width="2" stroke-linecap="butt"></path><path d="M18.9951 23.0001L19.0051 23.0001" stroke="#ffffff" stroke-opacity=".01" stroke-width="2" stroke-linecap="butt"></path><path d="M15.0029 15.0001L15.0129 15.0001" stroke="#ffffff" stroke-width="2" stroke-linecap="square"></path><path d="M15.0029 7.00011L15.0129 7.00011" stroke="#ffffff" stroke-opacity=".01" stroke-width="2" stroke-linecap="butt"></path><path d="M19 7.00011L19.01 7.00011" stroke="#ffffff" stroke-opacity=".01" stroke-width="2" stroke-linecap="butt"></path><path d="M11.0029 7.00011L11.0129 7.00011" stroke="#ffffff" stroke-opacity=".01" stroke-width="2" stroke-linecap="butt"></path><path d="M15.0029 11.0001L15.0129 11.0001" stroke="#ffffff" stroke-opacity=".25" stroke-width="2" stroke-linecap="square"></path><path d="M15.0029 3.00011L15.0129 3.00011" stroke="#ffffff" stroke-width="2" stroke-linecap="square"></path><path d="M19.0029 19.0001L19.0129 19.0001" stroke="#ffffff" stroke-width="2" stroke-linecap="square"></path><path d="M19.0029 11.0001L19.0129 11.0001" stroke="#ffffff" stroke-width="2" stroke-linecap="square"></path><path d="M19.0029 15.0001L19.0129 15.0001" stroke="#ffffff" stroke-width="2" stroke-linecap="square"></path><path d="M19.0029 3.00011L19.0129 3.00011" stroke="#ffffff" stroke-width="2" stroke-linecap="square"></path><path d="M23.0029 23.0001L23.0129 23.0001" stroke="#ffffff" stroke-opacity=".01" stroke-width="2" stroke-linecap="butt"></path><path d="M7.00293 27.0001L7.01293 27.0001" stroke="#ffffff" stroke-width="2" stroke-linecap="square"></path><path d="M3.00293 27.0001L3.01293 27.0001" stroke="#ffffff" stroke-opacity=".01" stroke-width="2" stroke-linecap="butt"></path><path d="M15.0029 27.0001L15.0129 27.0001" stroke="#ffffff" stroke-width="2" stroke-linecap="square"></path><path d="M19.0029 27.0001L19.0129 27.0001" stroke="#ffffff" stroke-width="2" stroke-linecap="square"></path><path d="M23.0029 27.0001L23.0129 27.0001" stroke="#ffffff" stroke-width="2" stroke-linecap="square"></path><path d="M27.0029 27.0001L27.0129 27.0001" stroke="#ffffff" stroke-opacity=".01" stroke-width="2" stroke-linecap="butt"></path><path d="M23.0029 15.0001L23.0129 15.0001" stroke="#ffffff" stroke-opacity=".01" stroke-width="2" stroke-linecap="butt"></path><path d="M23.0029 19.0001L23.0129 19.0001" stroke="#ffffff" stroke-opacity=".01" stroke-width="2" stroke-linecap="butt"></path><path d="M23.0029 11.0001L23.0129 11.0001" stroke="#ffffff" stroke-opacity=".01" stroke-width="2" stroke-linecap="butt"></path><path d="M7 19L7.01 19" stroke="#ffffff" stroke-opacity=".01" stroke-width="2" stroke-linecap="butt"></path><path d="M11 15L11.01 15" stroke="#ffffff" stroke-opacity=".01" stroke-width="2" stroke-linecap="butt"></path><path d="M27.0029 3.00011L27.0129 3.00011" stroke="#ffffff" stroke-opacity=".01" stroke-width="2" stroke-linecap="butt"></path><path d="M23.0029 3.00011L23.0129 3.00011" stroke="#ffffff" stroke-width="2" stroke-linecap="square"></path><path d="M27.0029 23.0001L27.0129 23.0001" stroke="#ffffff" stroke-width="2" stroke-linecap="square"></path><path d="M27.0029 19.0001L27.0129 19.0001" stroke="#ffffff" stroke-width="2" stroke-linecap="square"></path><path d="M27.0029 15.0001L27.0129 15.0001" stroke="#ffffff" stroke-width="2" stroke-linecap="square"></path><path d="M27.0029 11.0001L27.0129 11.0001" stroke="#ffffff" stroke-width="2" stroke-linecap="square"></path><path d="M27.0029 7.00011L27.0129 7.00011" stroke="#ffffff" stroke-width="2" stroke-linecap="square"></path><path d="M23.0029 7.00011L23.0129 7.00011" stroke="#ffffff" stroke-opacity=".25" stroke-width="2" stroke-linecap="square"></path></g></svg>