<svg width="30" height="30" xmlns="http://www.w3.org/2000/svg" viewBox="0 0 30 30"><title>30 square chevron right</title><g stroke-linejoin="miter" fill="none" stroke-linecap="butt" class="nc-icon-wrapper"><path d="M7 27.005L7 26.995" stroke="#ffffff" stroke-width="2" stroke-linecap="square"></path><path d="M11 27.005L11 26.995" stroke="#ffffff" stroke-width="2" stroke-linecap="square"></path><path d="M15 27.005L15 26.995" stroke="#ffffff" stroke-width="2" stroke-linecap="square"></path><path d="M19 27.005L19 26.995" stroke="#ffffff" stroke-width="2" stroke-linecap="square"></path><path d="M27 27.005L27 26.995" stroke="#ffffff" stroke-opacity=".01" stroke-width="2" stroke-linecap="butt"></path><path d="M15 23.005L15 22.995" stroke="#ffffff" stroke-opacity=".01" stroke-width="2" stroke-linecap="butt"></path><path d="M23 23.005L23 22.995" stroke="#ffffff" stroke-opacity=".01" stroke-width="2" stroke-linecap="butt"></path><path d="M3 19.005L3 18.995" stroke="#ffffff" stroke-width="2" stroke-linecap="square"></path><path d="M11 19.005L11 18.995" stroke="#ffffff" stroke-opacity=".01" stroke-width="2" stroke-linecap="butt"></path><path d="M11 15.015L11 15.005" stroke="#ffffff" stroke-opacity=".01" stroke-width="2" stroke-linecap="butt"></path><path d="M15 19.005L15 18.995" stroke="#ffffff" stroke-width="2" stroke-linecap="square"></path><path d="M19 23.005L19 22.995" stroke="#ffffff" stroke-opacity=".01" stroke-width="2" stroke-linecap="butt"></path><path d="M19 19.005L19 18.995" stroke="#ffffff" stroke-opacity=".01" stroke-width="2" stroke-linecap="butt"></path><path d="M7 11.015L7 11.005" stroke="#ffffff" stroke-opacity=".01" stroke-width="2" stroke-linecap="butt"></path><path d="M15 15.005L15 14.995" stroke="#ffffff" stroke-opacity=".01" stroke-width="2" stroke-linecap="butt"></path><path d="M23 15.005L23 14.995" stroke="#ffffff" stroke-opacity=".01" stroke-width="2" stroke-linecap="butt"></path><path d="M23 19.005L23 18.995" stroke="#ffffff" stroke-opacity=".01" stroke-width="2" stroke-linecap="butt"></path><path d="M19 15.005L19 14.995" stroke="#ffffff" stroke-width="2" stroke-linecap="square"></path><path d="M27 15.005L27 14.995" stroke="#ffffff" stroke-width="2" stroke-linecap="square"></path><path d="M27 19.01L27 19" stroke="#ffffff" stroke-width="2" stroke-linecap="square"></path><path d="M27 23.01L27 23" stroke="#ffffff" stroke-width="2" stroke-linecap="square"></path><path d="M11 11.005L11 10.995" stroke="#ffffff" stroke-opacity=".01" stroke-width="2" stroke-linecap="butt"></path><path d="M11 7.01001L11 7.00001" stroke="#ffffff" stroke-opacity=".01" stroke-width="2" stroke-linecap="butt"></path><path d="M19 11.005L19 10.995" stroke="#ffffff" stroke-opacity=".01" stroke-width="2" stroke-linecap="butt"></path><path d="M15 11.005L15 10.995" stroke="#ffffff" stroke-width="2" stroke-linecap="square"></path><path d="M23 11.005L23 10.995" stroke="#ffffff" stroke-opacity=".01" stroke-width="2" stroke-linecap="butt"></path><path d="M27 11.005L27 10.995" stroke="#ffffff" stroke-width="2" stroke-linecap="square"></path><path d="M7 7.00499L7 6.99499" stroke="#ffffff" stroke-opacity=".01" stroke-width="2" stroke-linecap="butt"></path><path d="M3 23.005L3 22.995" stroke="#ffffff" stroke-width="2" stroke-linecap="square"></path><path d="M3 27.005L3 26.995" stroke="#ffffff" stroke-opacity=".01" stroke-width="2" stroke-linecap="butt"></path><path d="M3 15.005L3 14.995" stroke="#ffffff" stroke-width="2" stroke-linecap="square"></path><path d="M3 11.005L3 10.995" stroke="#ffffff" stroke-width="2" stroke-linecap="square"></path><path d="M3 7.00499L3 6.99499" stroke="#ffffff" stroke-width="2" stroke-linecap="square"></path><path d="M3 3.00499L3 2.99499" stroke="#ffffff" stroke-opacity=".01" stroke-width="2" stroke-linecap="butt"></path><path d="M15 7.00499L15 6.99499" stroke="#ffffff" stroke-opacity=".01" stroke-width="2" stroke-linecap="butt"></path><path d="M19 7.00499L19 6.99499" stroke="#ffffff" stroke-opacity=".01" stroke-width="2" stroke-linecap="butt"></path><path d="M23 7.00499L23 6.99499" stroke="#ffffff" stroke-opacity=".01" stroke-width="2" stroke-linecap="butt"></path><path d="M27 3.00499L27 2.99499" stroke="#ffffff" stroke-opacity=".01" stroke-width="2" stroke-linecap="butt"></path><path d="M27 7.00499L27 6.99499" stroke="#ffffff" stroke-width="2" stroke-linecap="square"></path><path d="M7 3.00499L7 2.99499" stroke="#ffffff" stroke-width="2" stroke-linecap="square"></path><path d="M11 3.00499L11 2.99499" stroke="#ffffff" stroke-width="2" stroke-linecap="square"></path><path d="M15 3.00499L15 2.99499" stroke="#ffffff" stroke-width="2" stroke-linecap="square"></path><path d="M19 3.00499L19 2.99499" stroke="#ffffff" stroke-width="2" stroke-linecap="square"></path><path d="M23.0098 3L22.9998 3" stroke="#ffffff" stroke-opacity=".25" stroke-width="2" stroke-linecap="square"></path><path d="M23.0078 27L22.9978 27" stroke="#ffffff" stroke-opacity=".25" stroke-width="2" stroke-linecap="square"></path><path d="M11.0078 23L10.9978 23" stroke="#ffffff" stroke-opacity=".25" stroke-width="2" stroke-linecap="square"></path><path d="M7.00781 19L6.99781 19" stroke="#ffffff" stroke-opacity=".25" stroke-width="2" stroke-linecap="square"></path><path d="M7.00977 15L6.99977 15" stroke="#ffffff" stroke-opacity=".25" stroke-width="2" stroke-linecap="square"></path><path d="M7.00781 23L6.99781 23" stroke="#ffffff" stroke-opacity=".25" stroke-width="2" stroke-linecap="square"></path></g></svg>