<svg width="30" height="30" xmlns="http://www.w3.org/2000/svg" viewBox="0 0 30 30"><title>30 square arrow down left</title><g stroke-linejoin="miter" fill="none" stroke-linecap="butt" class="nc-icon-wrapper"><path d="M27.0098 23L26.9998 23" stroke="#ffffff" stroke-width="2" stroke-linecap="square"></path><path d="M27.0098 19L26.9998 19" stroke="#ffffff" stroke-width="2" stroke-linecap="square"></path><path d="M27.0098 15L26.9998 15" stroke="#ffffff" stroke-width="2" stroke-linecap="square"></path><path d="M27.0098 11L26.9998 11" stroke="#ffffff" stroke-width="2" stroke-linecap="square"></path><path d="M27.0098 7L26.9998 7" stroke="#ffffff" stroke-width="2" stroke-linecap="square"></path><path d="M27.0098 3L26.9998 3" stroke="#ffffff" stroke-opacity=".01" stroke-width="2" stroke-linecap="butt"></path><path d="M23.0098 3L22.9998 3" stroke="#ffffff" stroke-opacity=".01" stroke-width="2" stroke-linecap="butt"></path><path d="M19.0098 3L18.9998 3" stroke="#ffffff" stroke-opacity=".01" stroke-width="2" stroke-linecap="butt"></path><path d="M23.0098 23L22.9998 23" stroke="#ffffff" stroke-opacity=".01" stroke-width="2" stroke-linecap="butt"></path><path d="M23.0098 15L22.9998 15" stroke="#ffffff" stroke-opacity=".25" stroke-width="2" stroke-linecap="square"></path><path d="M23.0098 7L22.9998 7" stroke="#ffffff" stroke-width="2" stroke-linecap="square"></path><path d="M19.0098 23L18.9998 23" stroke="#ffffff" stroke-opacity=".01" stroke-width="2" stroke-linecap="butt"></path><path d="M19.0098 27L18.9998 27" stroke="#ffffff" stroke-width="2" stroke-linecap="square"></path><path d="M19.0098 19L18.9998 19" stroke="#ffffff" stroke-width="2" stroke-linecap="square"></path><path d="M15.0176 19L15.0076 19" stroke="#ffffff" stroke-width="2" stroke-linecap="square"></path><path d="M23.0098 11L22.9998 11" stroke="#ffffff" stroke-opacity=".25" stroke-width="2" stroke-linecap="square"></path><path d="M19.0098 11L18.9998 11" stroke="#ffffff" stroke-width="2" stroke-linecap="square"></path><path d="M15.0098 23L14.9998 23" stroke="#ffffff" stroke-opacity=".01" stroke-width="2" stroke-linecap="butt"></path><path d="M11.0176 23L11.0076 23" stroke="#ffffff" stroke-opacity=".01" stroke-width="2" stroke-linecap="butt"></path><path d="M15.0098 15L14.9998 15" stroke="#ffffff" stroke-width="2" stroke-linecap="square"></path><path d="M15.0098 7L14.9998 7" stroke="#ffffff" stroke-opacity=".01" stroke-width="2" stroke-linecap="butt"></path><path d="M11.0098 7L10.9998 7" stroke="#ffffff" stroke-opacity=".01" stroke-width="2" stroke-linecap="butt"></path><path d="M19.0098 7L18.9998 7" stroke="#ffffff" stroke-opacity=".01" stroke-width="2" stroke-linecap="butt"></path><path d="M15.0098 11L14.9998 11" stroke="#ffffff" stroke-opacity=".25" stroke-width="2" stroke-linecap="square"></path><path d="M15.0098 3L14.9998 3" stroke="#ffffff" stroke-width="2" stroke-linecap="square"></path><path d="M11.0098 19L10.9998 19" stroke="#ffffff" stroke-width="2" stroke-linecap="square"></path><path d="M11.0098 11L10.9998 11" stroke="#ffffff" stroke-width="2" stroke-linecap="square"></path><path d="M11.0098 15L10.9998 15" stroke="#ffffff" stroke-width="2" stroke-linecap="square"></path><path d="M11.0098 3L10.9998 3" stroke="#ffffff" stroke-width="2" stroke-linecap="square"></path><path d="M7.00977 23L6.99977 23" stroke="#ffffff" stroke-opacity=".01" stroke-width="2" stroke-linecap="butt"></path><path d="M23.0098 27L22.9998 27" stroke="#ffffff" stroke-width="2" stroke-linecap="square"></path><path d="M27.0098 27L26.9998 27" stroke="#ffffff" stroke-opacity=".01" stroke-width="2" stroke-linecap="butt"></path><path d="M15.0098 27L14.9998 27" stroke="#ffffff" stroke-width="2" stroke-linecap="square"></path><path d="M11.0098 27L10.9998 27" stroke="#ffffff" stroke-width="2" stroke-linecap="square"></path><path d="M7.00977 27L6.99977 27" stroke="#ffffff" stroke-width="2" stroke-linecap="square"></path><path d="M3.00977 27L2.99977 27" stroke="#ffffff" stroke-opacity=".01" stroke-width="2" stroke-linecap="butt"></path><path d="M7.00977 15L6.99977 15" stroke="#ffffff" stroke-opacity=".01" stroke-width="2" stroke-linecap="butt"></path><path d="M7.00977 19L6.99977 19" stroke="#ffffff" stroke-opacity=".01" stroke-width="2" stroke-linecap="butt"></path><path d="M7.00977 11L6.99977 11" stroke="#ffffff" stroke-opacity=".01" stroke-width="2" stroke-linecap="butt"></path><path d="M23.0078 19L22.9978 19" stroke="#ffffff" stroke-opacity=".01" stroke-width="2" stroke-linecap="butt"></path><path d="M19.0098 15L18.9998 15" stroke="#ffffff" stroke-opacity=".01" stroke-width="2" stroke-linecap="butt"></path><path d="M3.00977 3L2.99977 3" stroke="#ffffff" stroke-opacity=".01" stroke-width="2" stroke-linecap="butt"></path><path d="M7.00977 3L6.99977 3" stroke="#ffffff" stroke-width="2" stroke-linecap="square"></path><path d="M3.00977 23L2.99977 23" stroke="#ffffff" stroke-width="2" stroke-linecap="square"></path><path d="M3.00977 19L2.99977 19" stroke="#ffffff" stroke-width="2" stroke-linecap="square"></path><path d="M3.00977 15L2.99977 15" stroke="#ffffff" stroke-width="2" stroke-linecap="square"></path><path d="M3.00977 11L2.99977 11" stroke="#ffffff" stroke-width="2" stroke-linecap="square"></path><path d="M3.00977 7L2.99977 7" stroke="#ffffff" stroke-width="2" stroke-linecap="square"></path><path d="M7.00977 7L6.99977 7" stroke="#ffffff" stroke-opacity=".25" stroke-width="2" stroke-linecap="square"></path></g></svg>