<svg width="30" height="30" xmlns="http://www.w3.org/2000/svg" viewBox="0 0 30 30"><title>30 square chevron left</title><g stroke-linejoin="miter" fill="none" stroke-linecap="butt" class="nc-icon-wrapper"><path d="M23 27.0049L23 26.9949" stroke="#ffffff" stroke-width="2" stroke-linecap="square"></path><path d="M19 27.0049L19 26.9949" stroke="#ffffff" stroke-width="2" stroke-linecap="square"></path><path d="M15 27.0049L15 26.9949" stroke="#ffffff" stroke-width="2" stroke-linecap="square"></path><path d="M11 27.0049L11 26.9949" stroke="#ffffff" stroke-width="2" stroke-linecap="square"></path><path d="M3 27.0049L3 26.9949" stroke="#ffffff" stroke-opacity=".01" stroke-width="2" stroke-linecap="butt"></path><path d="M15 23.0049L15 22.9949" stroke="#ffffff" stroke-opacity=".01" stroke-width="2" stroke-linecap="butt"></path><path d="M7 23.0049L7 22.9949" stroke="#ffffff" stroke-opacity=".01" stroke-width="2" stroke-linecap="butt"></path><path d="M27 19.0049L27 18.9949" stroke="#ffffff" stroke-width="2" stroke-linecap="square"></path><path d="M19 19.0049L19 18.9949" stroke="#ffffff" stroke-opacity=".01" stroke-width="2" stroke-linecap="butt"></path><path d="M19 15.0146L19 15.0046" stroke="#ffffff" stroke-opacity=".01" stroke-width="2" stroke-linecap="butt"></path><path d="M15 19.0049L15 18.9949" stroke="#ffffff" stroke-width="2" stroke-linecap="square"></path><path d="M11 23.0049L11 22.9949" stroke="#ffffff" stroke-opacity=".01" stroke-width="2" stroke-linecap="butt"></path><path d="M11 19.0049L11 18.9949" stroke="#ffffff" stroke-opacity=".01" stroke-width="2" stroke-linecap="butt"></path><path d="M23 11.0146L23 11.0046" stroke="#ffffff" stroke-opacity=".01" stroke-width="2" stroke-linecap="butt"></path><path d="M15 15.0049L15 14.9949" stroke="#ffffff" stroke-opacity=".01" stroke-width="2" stroke-linecap="butt"></path><path d="M7 15.0049L7 14.9949" stroke="#ffffff" stroke-opacity=".01" stroke-width="2" stroke-linecap="butt"></path><path d="M7 19.0049L7 18.9949" stroke="#ffffff" stroke-opacity=".01" stroke-width="2" stroke-linecap="butt"></path><path d="M11 15.0049L11 14.9949" stroke="#ffffff" stroke-width="2" stroke-linecap="square"></path><path d="M3 15.0049L3 14.9949" stroke="#ffffff" stroke-width="2" stroke-linecap="square"></path><path d="M3 19.0098L3 18.9998" stroke="#ffffff" stroke-width="2" stroke-linecap="square"></path><path d="M3 23.0098L3 22.9998" stroke="#ffffff" stroke-width="2" stroke-linecap="square"></path><path d="M19 11.0049L19 10.9949" stroke="#ffffff" stroke-opacity=".01" stroke-width="2" stroke-linecap="butt"></path><path d="M19 7.00977L19 6.99977" stroke="#ffffff" stroke-opacity=".01" stroke-width="2" stroke-linecap="butt"></path><path d="M11 11.0049L11 10.9949" stroke="#ffffff" stroke-opacity=".01" stroke-width="2" stroke-linecap="butt"></path><path d="M15 11.0049L15 10.9949" stroke="#ffffff" stroke-width="2" stroke-linecap="square"></path><path d="M7 11.0049L7 10.9949" stroke="#ffffff" stroke-opacity=".01" stroke-width="2" stroke-linecap="butt"></path><path d="M3 11.0049L3 10.9949" stroke="#ffffff" stroke-width="2" stroke-linecap="square"></path><path d="M23 7.00488L23 6.99488" stroke="#ffffff" stroke-opacity=".01" stroke-width="2" stroke-linecap="butt"></path><path d="M27 23.0049L27 22.9949" stroke="#ffffff" stroke-width="2" stroke-linecap="square"></path><path d="M27 27.0049L27 26.9949" stroke="#ffffff" stroke-opacity=".01" stroke-width="2" stroke-linecap="butt"></path><path d="M27 15.0049L27 14.9949" stroke="#ffffff" stroke-width="2" stroke-linecap="square"></path><path d="M27 11.0049L27 10.9949" stroke="#ffffff" stroke-width="2" stroke-linecap="square"></path><path d="M27 7.00488L27 6.99488" stroke="#ffffff" stroke-width="2" stroke-linecap="square"></path><path d="M27 3.00488L27 2.99488" stroke="#ffffff" stroke-opacity=".01" stroke-width="2" stroke-linecap="butt"></path><path d="M15 7.00488L15 6.99488" stroke="#ffffff" stroke-opacity=".01" stroke-width="2" stroke-linecap="butt"></path><path d="M11 7.00488L11 6.99488" stroke="#ffffff" stroke-opacity=".01" stroke-width="2" stroke-linecap="butt"></path><path d="M7 7.00488L7 6.99488" stroke="#ffffff" stroke-opacity=".01" stroke-width="2" stroke-linecap="butt"></path><path d="M3 3.00488L3 2.99488" stroke="#ffffff" stroke-opacity=".01" stroke-width="2" stroke-linecap="butt"></path><path d="M3 7.00488L3 6.99488" stroke="#ffffff" stroke-width="2" stroke-linecap="square"></path><path d="M23 3.00488L23 2.99488" stroke="#ffffff" stroke-width="2" stroke-linecap="square"></path><path d="M19 3.00488L19 2.99488" stroke="#ffffff" stroke-width="2" stroke-linecap="square"></path><path d="M15 3.00488L15 2.99488" stroke="#ffffff" stroke-width="2" stroke-linecap="square"></path><path d="M11 3.00488L11 2.99488" stroke="#ffffff" stroke-width="2" stroke-linecap="square"></path><path d="M6.99219 3L7.00219 3" stroke="#ffffff" stroke-opacity=".25" stroke-width="2" stroke-linecap="square"></path><path d="M6.99219 27L7.00219 27" stroke="#ffffff" stroke-opacity=".25" stroke-width="2" stroke-linecap="square"></path><path d="M18.9922 23L19.0022 23" stroke="#ffffff" stroke-opacity=".25" stroke-width="2" stroke-linecap="square"></path><path d="M22.9922 19L23.0022 19" stroke="#ffffff" stroke-opacity=".25" stroke-width="2" stroke-linecap="square"></path><path d="M22.9922 15L23.0022 15" stroke="#ffffff" stroke-opacity=".25" stroke-width="2" stroke-linecap="square"></path><path d="M22.9922 23L23.0022 23" stroke="#ffffff" stroke-opacity=".25" stroke-width="2" stroke-linecap="square"></path></g></svg>