<svg width="30" height="30" xmlns="http://www.w3.org/2000/svg" viewBox="0 0 30 30"><title>30 сircle arrow right</title><g stroke-linejoin="miter" fill="none" stroke-linecap="butt" class="nc-icon-wrapper"><path d="M27.01 23L27 23" stroke="#ffffff" stroke-opacity=".01" stroke-width="2" stroke-linecap="square"></path><path d="M27.01 19L27 19" stroke="#ffffff" stroke-width="2" stroke-linecap="square"></path><path d="M27.01 15L27 15" stroke="#ffffff" stroke-width="2" stroke-linecap="square"></path><path d="M27.01 11L27 11" stroke="#ffffff" stroke-width="2" stroke-linecap="square"></path><path d="M27.01 7L27 7" stroke="#ffffff" stroke-opacity=".01" stroke-width="2" stroke-linecap="square"></path><path d="M27.01 3L27 3" stroke="#ffffff" stroke-opacity=".01" stroke-width="2" stroke-linecap="square"></path><path d="M23.01 23L23 23" stroke="#ffffff" stroke-width="2" stroke-linecap="square"></path><path d="M23.01 19L23 19" stroke="#ffffff" stroke-opacity=".25" stroke-width="2" stroke-linecap="square"></path><path d="M23.01 15L23 15" stroke="#ffffff" stroke-opacity=".25" stroke-width="2" stroke-linecap="square"></path><path d="M23.01 11L23 11" stroke="#ffffff" stroke-opacity=".01" stroke-width="2" stroke-linecap="square"></path><path d="M23.01 7L23 7" stroke="#ffffff" stroke-width="2" stroke-linecap="square"></path><path d="M23.01 3L23 3" stroke="#ffffff" stroke-opacity=".01" stroke-width="2" stroke-linecap="square"></path><path d="M19.01 23L19 23" stroke="#ffffff" stroke-opacity=".25" stroke-width="2" stroke-linecap="square"></path><path d="M19.01 19L19 19" stroke="#ffffff" stroke-opacity=".01" stroke-width="2" stroke-linecap="square"></path><path d="M19.01 15L19 15" stroke="#ffffff" stroke-width="2" stroke-linecap="square"></path><path d="M19.01 11L19 11" stroke="#ffffff" stroke-opacity=".01" stroke-width="2" stroke-linecap="square"></path><path d="M19.01 7L19 7" stroke="#ffffff" stroke-opacity=".01" stroke-width="2" stroke-linecap="square"></path><path d="M19.01 3L19 3" stroke="#ffffff" stroke-width="2" stroke-linecap="square"></path><path d="M15.01 23L15 23" stroke="#ffffff" stroke-opacity=".25" stroke-width="2" stroke-linecap="square"></path><path d="M15.01 19L15 19" stroke="#ffffff" stroke-width="2" stroke-linecap="square"></path><path d="M15.01 15L15 15" stroke="#ffffff" stroke-width="2" stroke-linecap="square"></path><path d="M15.01 11L15 11" stroke="#ffffff" stroke-width="2" stroke-linecap="square"></path><path d="M15.01 7L15 7" stroke="#ffffff" stroke-opacity=".01" stroke-width="2" stroke-linecap="square"></path><path d="M15.01 3L15 3" stroke="#ffffff" stroke-width="2" stroke-linecap="square"></path><path d="M11.01 23L11 23" stroke="#ffffff" stroke-opacity=".01" stroke-width="2" stroke-linecap="square"></path><path d="M11.01 19L11 19" stroke="#ffffff" stroke-opacity=".01" stroke-width="2" stroke-linecap="square"></path><path d="M11.01 15L11 15" stroke="#ffffff" stroke-width="2" stroke-linecap="square"></path><path d="M11.01 11L11 11" stroke="#ffffff" stroke-opacity=".01" stroke-width="2" stroke-linecap="square"></path><path d="M11.01 7L11 7" stroke="#ffffff" stroke-opacity=".01" stroke-width="2" stroke-linecap="square"></path><path d="M11.01 3L11 3" stroke="#ffffff" stroke-width="2" stroke-linecap="square"></path><path d="M7.01001 23L7.00001 23" stroke="#ffffff" stroke-width="2" stroke-linecap="square"></path><path d="M7.01001 19L7.00001 19" stroke="#ffffff" stroke-opacity=".01" stroke-width="2" stroke-linecap="square"></path><path d="M23.01 27L23 27" stroke="#ffffff" stroke-opacity=".01" stroke-width="2" stroke-linecap="square"></path><path d="M27.01 27L27 27" stroke="#ffffff" stroke-opacity=".01" stroke-width="2" stroke-linecap="square"></path><path d="M19.01 27L19 27" stroke="#ffffff" stroke-width="2" stroke-linecap="square"></path><path d="M15.01 27L15 27" stroke="#ffffff" stroke-width="2" stroke-linecap="square"></path><path d="M11.01 27L11 27" stroke="#ffffff" stroke-width="2" stroke-linecap="square"></path><path d="M7.01001 27L7.00001 27" stroke="#ffffff" stroke-opacity=".01" stroke-width="2" stroke-linecap="square"></path><path d="M3.01001 27L3.00001 27" stroke="#ffffff" stroke-opacity=".01" stroke-width="2" stroke-linecap="square"></path><path d="M7.01001 15L7.00001 15" stroke="#ffffff" stroke-width="2" stroke-linecap="square"></path><path d="M7.01001 11L7.00001 11" stroke="#ffffff" stroke-opacity=".01" stroke-width="2" stroke-linecap="square"></path><path d="M7.01001 7L7.00001 7" stroke="#ffffff" stroke-width="2" stroke-linecap="square"></path><path d="M3.01001 3L3.00001 3" stroke="#ffffff" stroke-opacity=".01" stroke-width="2" stroke-linecap="square"></path><path d="M7.01001 3L7.00001 3" stroke="#ffffff" stroke-opacity=".01" stroke-width="2" stroke-linecap="square"></path><path d="M3.01001 23L3.00001 23" stroke="#ffffff" stroke-opacity=".01" stroke-width="2" stroke-linecap="square"></path><path d="M3.01001 19L3.00001 19" stroke="#ffffff" stroke-opacity=".01" stroke-width="2" stroke-linecap="square"></path><path d="M3.01001 15L3.00001 15" stroke="#ffffff" stroke-width="2" stroke-linecap="square"></path><path d="M3.01001 11L3.00001 11" stroke="#ffffff" stroke-opacity=".01" stroke-width="2" stroke-linecap="square"></path><path d="M3.01001 7L3.00001 7" stroke="#ffffff" stroke-opacity=".01" stroke-width="2" stroke-linecap="square"></path></g></svg>