<svg width="30" height="30" xmlns="http://www.w3.org/2000/svg" viewBox="0 0 30 30"><title>30 сircle arrow left</title><g stroke-linejoin="miter" fill="none" stroke-linecap="butt" class="nc-icon-wrapper"><path d="M3 23L3.01 23" stroke="#ffffff" stroke-opacity=".01" stroke-width="2" stroke-linecap="square"></path><path d="M3 19L3.01 19" stroke="#ffffff" stroke-width="2" stroke-linecap="square"></path><path d="M3 15L3.01 15" stroke="#ffffff" stroke-width="2" stroke-linecap="square"></path><path d="M3 11L3.01 11" stroke="#ffffff" stroke-width="2" stroke-linecap="square"></path><path d="M3 7L3.01 7" stroke="#ffffff" stroke-opacity=".01" stroke-width="2" stroke-linecap="square"></path><path d="M3 3L3.01 3" stroke="#ffffff" stroke-opacity=".01" stroke-width="2" stroke-linecap="square"></path><path d="M7 23L7.01 23" stroke="#ffffff" stroke-width="2" stroke-linecap="square"></path><path d="M7 19L7.01 19" stroke="#ffffff" stroke-opacity=".25" stroke-width="2" stroke-linecap="square"></path><path d="M7 15L7.01 15" stroke="#ffffff" stroke-opacity=".25" stroke-width="2" stroke-linecap="square"></path><path d="M7 11L7.01 11" stroke="#ffffff" stroke-opacity=".01" stroke-width="2" stroke-linecap="square"></path><path d="M7 7L7.01 7" stroke="#ffffff" stroke-width="2" stroke-linecap="square"></path><path d="M7 3L7.01 3" stroke="#ffffff" stroke-opacity=".01" stroke-width="2" stroke-linecap="square"></path><path d="M11 23L11.01 23" stroke="#ffffff" stroke-opacity=".25" stroke-width="2" stroke-linecap="square"></path><path d="M11 15L11.01 15" stroke="#ffffff" stroke-width="2" stroke-linecap="square"></path><path d="M11 11L11.01 11" stroke="#ffffff" stroke-opacity=".01" stroke-width="2" stroke-linecap="square"></path><path d="M11 7L11.01 7" stroke="#ffffff" stroke-opacity=".01" stroke-width="2" stroke-linecap="square"></path><path d="M11 3L11.01 3" stroke="#ffffff" stroke-width="2" stroke-linecap="square"></path><path d="M15 23L15.01 23" stroke="#ffffff" stroke-opacity=".25" stroke-width="2" stroke-linecap="square"></path><path d="M15 19L15.01 19" stroke="#ffffff" stroke-width="2" stroke-linecap="square"></path><path d="M15 15L15.01 15" stroke="#ffffff" stroke-width="2" stroke-linecap="square"></path><path d="M15 11L15.01 11" stroke="#ffffff" stroke-width="2" stroke-linecap="square"></path><path d="M15 7L15.01 7" stroke="#ffffff" stroke-opacity=".01" stroke-width="2" stroke-linecap="square"></path><path d="M15 3L15.01 3" stroke="#ffffff" stroke-width="2" stroke-linecap="square"></path><path d="M19 23L19.01 23" stroke="#ffffff" stroke-opacity=".01" stroke-width="2" stroke-linecap="square"></path><path d="M19 19L19.01 19" stroke="#ffffff" stroke-opacity=".01" stroke-width="2" stroke-linecap="square"></path><path d="M11 19L11.01 19" stroke="#ffffff" stroke-opacity=".01" stroke-width="2" stroke-linecap="square"></path><path d="M19 15L19.01 15" stroke="#ffffff" stroke-width="2" stroke-linecap="square"></path><path d="M19 11L19.01 11" stroke="#ffffff" stroke-opacity=".01" stroke-width="2" stroke-linecap="square"></path><path d="M19 7L19.01 7" stroke="#ffffff" stroke-opacity=".01" stroke-width="2" stroke-linecap="square"></path><path d="M19 3L19.01 3" stroke="#ffffff" stroke-width="2" stroke-linecap="square"></path><path d="M23 23L23.01 23" stroke="#ffffff" stroke-width="2" stroke-linecap="square"></path><path d="M23 19L23.01 19" stroke="#ffffff" stroke-opacity=".01" stroke-width="2" stroke-linecap="square"></path><path d="M7 27L7.01 27" stroke="#ffffff" stroke-opacity=".01" stroke-width="2" stroke-linecap="square"></path><path d="M3 27L3.01 27" stroke="#ffffff" stroke-opacity=".01" stroke-width="2" stroke-linecap="square"></path><path d="M11 27L11.01 27" stroke="#ffffff" stroke-width="2" stroke-linecap="square"></path><path d="M15 27L15.01 27" stroke="#ffffff" stroke-width="2" stroke-linecap="square"></path><path d="M19 27L19.01 27" stroke="#ffffff" stroke-width="2" stroke-linecap="square"></path><path d="M23 27L23.01 27" stroke="#ffffff" stroke-opacity=".01" stroke-width="2" stroke-linecap="square"></path><path d="M27 27L27.01 27" stroke="#ffffff" stroke-opacity=".01" stroke-width="2" stroke-linecap="square"></path><path d="M23 15L23.01 15" stroke="#ffffff" stroke-width="2" stroke-linecap="square"></path><path d="M23 11L23.01 11" stroke="#ffffff" stroke-opacity=".01" stroke-width="2" stroke-linecap="square"></path><path d="M23 7L23.01 7" stroke="#ffffff" stroke-width="2" stroke-linecap="square"></path><path d="M27 3L27.01 3" stroke="#ffffff" stroke-opacity=".01" stroke-width="2" stroke-linecap="square"></path><path d="M23 3L23.01 3" stroke="#ffffff" stroke-opacity=".01" stroke-width="2" stroke-linecap="square"></path><path d="M27 23L27.01 23" stroke="#ffffff" stroke-opacity=".01" stroke-width="2" stroke-linecap="square"></path><path d="M27 19L27.01 19" stroke="#ffffff" stroke-opacity=".01" stroke-width="2" stroke-linecap="square"></path><path d="M27 15L27.01 15" stroke="#ffffff" stroke-width="2" stroke-linecap="square"></path><path d="M27 11L27.01 11" stroke="#ffffff" stroke-opacity=".01" stroke-width="2" stroke-linecap="square"></path><path d="M27 7L27.01 7" stroke="#ffffff" stroke-opacity=".01" stroke-width="2" stroke-linecap="square"></path></g></svg>